<svg version="1.1" viewBox="0.0 0.0 837.514435695538 243.33333333333334" fill="none" stroke="none" stroke-linecap="square" stroke-miterlimit="10" xmlns:xlink="http://www.w3.org/1999/xlink" xmlns="http://www.w3.org/2000/svg"><clipPath id="p.0"><path d="m0 0l837.51447 0l0 243.33333l-837.51447 0l0 -243.33333z" clip-rule="nonzero"/></clipPath><g clip-path="url(#p.0)"><path fill="#000000" fill-opacity="0.0" d="m0 0l837.51447 0l0 243.33333l-837.51447 0z" fill-rule="evenodd"/><path fill="#000000" fill-opacity="0.0" d="m658.9869 57.771652l0 99.2126l37.13385 0" fill-rule="evenodd"/><path stroke="#000000" stroke-width="2.0" stroke-linejoin="round" stroke-linecap="butt" d="m658.9869 57.771652l0 99.2126l30.279663 0" fill-rule="evenodd"/><path fill="#000000" stroke="#000000" stroke-width="2.0" stroke-linecap="butt" d="m689.26654 156.98425l-2.2491455 2.2491608l6.1795654 -2.2491608l-6.1795654 -2.2491608z" fill-rule="evenodd"/><path fill="#000000" fill-opacity="0.0" d="m448.53018 57.771652l0 99.2126l36.346466 0" fill-rule="evenodd"/><path stroke="#000000" stroke-width="2.0" stroke-linejoin="round" stroke-linecap="butt" d="m448.53018 57.771652l0 99.2126l29.49228 0" fill-rule="evenodd"/><path fill="#000000" stroke="#000000" stroke-width="2.0" stroke-linecap="butt" d="m478.02246 156.98425l-2.2491455 2.2491608l6.179535 -2.2491608l-6.179535 -2.2491608z" fill-rule="evenodd"/><path fill="#000000" fill-opacity="0.0" d="m241.3937 62.828083l0 59.52756l37.13385 0" fill-rule="evenodd"/><path stroke="#000000" stroke-width="2.0" stroke-linejoin="round" stroke-linecap="butt" d="m241.3937 62.828083l0 59.52756l30.279694 0" fill-rule="evenodd"/><path fill="#000000" stroke="#000000" stroke-width="2.0" stroke-linecap="butt" d="m271.6734 122.355644l-2.249176 2.2491684l6.179535 -2.2491684l-6.179535 -2.2491684z" fill-rule="evenodd"/><path fill="#000000" fill-opacity="0.0" d="m53.115486 58.041996l0 64.31496l35.527557 0" fill-rule="evenodd"/><path stroke="#000000" stroke-width="2.0" stroke-linejoin="round" stroke-linecap="butt" d="m53.115486 58.041996l0 64.31496l28.673386 0" fill-rule="evenodd"/><path fill="#000000" stroke="#000000" stroke-width="2.0" stroke-linecap="butt" d="m81.78887 122.35696l-2.2491684 2.2491684l6.179535 -2.2491684l-6.179535 -2.2491684z" fill-rule="evenodd"/><path fill="#f4cccc" d="m31.044619 30.19685l112.31496 0l0 38.393703l-112.31496 0z" fill-rule="evenodd"/><path stroke="#000000" stroke-width="1.0" stroke-linejoin="round" stroke-linecap="butt" d="m31.044619 30.19685l112.31496 0l0 38.393703l-112.31496 0z" fill-rule="evenodd"/><path fill="#000000" d="m43.216496 55.47245q-0.984375 0 -1.75 -0.25q-0.765625 -0.25 -1.28125 -0.53125l0.328125 -1.5625l0.078125 0q0.15625 0.140625 0.421875 0.328125q0.265625 0.1875 0.671875 0.375q0.359375 0.1875 0.828125 0.3125q0.484375 0.125 1.015625 0.125q1.109375 0 1.734375 -0.40625q0.625 -0.40625 0.625 -1.1875q0 -0.421875 -0.328125 -0.640625q-0.3125 -0.21875 -0.921875 -0.359375q-0.296875 -0.078125 -0.734375 -0.15625q-0.421875 -0.09375 -0.859375 -0.203125q-0.90625 -0.265625 -1.34375 -0.75q-0.4375 -0.484375 -0.4375 -1.1875q0 -0.609375 0.265625 -1.140625q0.265625 -0.53125 0.78125 -0.984375q0.5 -0.421875 1.265625 -0.671875q0.78125 -0.265625 1.734375 -0.265625q0.78125 0 1.546875 0.203125q0.78125 0.1875 1.28125 0.46875l-0.3125 1.5l-0.078125 0q-0.125 -0.09375 -0.390625 -0.265625q-0.25 -0.171875 -0.640625 -0.359375q-0.328125 -0.140625 -0.78125 -0.25q-0.453125 -0.109375 -0.9375 -0.109375q-0.96875 0 -1.578125 0.40625q-0.609375 0.40625 -0.609375 1.125q0 0.390625 0.296875 0.65625q0.296875 0.25 0.90625 0.40625q0.375 0.09375 0.796875 0.171875q0.421875 0.078125 0.8125 0.171875q0.90625 0.234375 1.359375 0.71875q0.453125 0.46875 0.453125 1.1875q0 0.59375 -0.28125 1.171875q-0.28125 0.578125 -0.828125 1.0q-0.546875 0.4375 -1.34375 0.703125q-0.78125 0.25 -1.765625 0.25zm18.492188 -8.953125l-4.0625 8.734375l-1.375 0l-0.875 -6.75l-3.59375 6.75l-1.359375 0l-0.546875 -8.734375l1.5 0l0.21875 6.75l3.5625 -6.75l1.234375 0l0.84375 6.75l2.90625 -6.75l1.546875 0zm4.484371 -2.984375l-0.34375 1.53125l-1.65625 0l0.34375 -1.53125l1.65625 0zm-0.78125 2.984375l-2.0156212 8.734375l-1.46875 0l2.015625 -8.734375l1.4687462 0zm7.4375 0l-0.265625 1.1875l-3.03125 0l-0.9375 4.03125q-0.078125 0.296875 -0.140625 0.703125q-0.0625 0.390625 -0.0625 0.625q0 0.5625 0.28125 0.84375q0.296875 0.28125 1.078125 0.28125q0.328125 0 0.765625 -0.109375q0.4375 -0.109375 0.59375 -0.171875l0.078125 0l-0.265625 1.265625q-0.4375 0.109375 -0.9375 0.171875q-0.5 0.078125 -0.875 0.078125q-1.078125 0 -1.671875 -0.46875q-0.59375 -0.484375 -0.59375 -1.5q0 -0.25 0.03125 -0.5q0.046875 -0.25 0.109375 -0.5625l1.078125 -4.6875l-0.984375 0l0.265625 -1.1875l0.984375 0l0.59375 -2.5l1.46875 0l-0.59375 2.5l3.03125 0zm3.5390625 8.9375q-0.828125 0 -1.46875 -0.203125q-0.625 -0.203125 -1.109375 -0.625q-0.453125 -0.40625 -0.703125 -1.015625q-0.25 -0.625 -0.25 -1.4375q0 -1.234375 0.375 -2.296875q0.390625 -1.0625 1.09375 -1.859375q0.671875 -0.78125 1.671875 -1.234375q1.0 -0.46875 2.15625 -0.46875q0.765625 0 1.4375 0.21875q0.6875 0.203125 1.203125 0.5l-0.328125 1.578125l-0.078125 0q-0.15625 -0.140625 -0.390625 -0.328125q-0.234375 -0.1875 -0.5625 -0.34375q-0.3125 -0.171875 -0.703125 -0.28125q-0.390625 -0.125 -0.890625 -0.125q-1.515625 0 -2.484375 1.28125q-0.953125 1.28125 -0.953125 3.125q0 1.09375 0.5625 1.6875q0.578125 0.59375 1.625 0.59375q0.484375 0 0.96875 -0.140625q0.5 -0.140625 0.84375 -0.296875q0.390625 -0.1875 0.71875 -0.390625q0.328125 -0.203125 0.46875 -0.296875l0.09375 0l-0.3125 1.59375q-0.6875 0.3125 -1.453125 0.546875q-0.75 0.21875 -1.53125 0.21875zm13.3046875 -6.9375q0 0.1875 -0.046875 0.515625q-0.03125 0.3125 -0.09375 0.546875l-1.3125 5.671875l-1.46875 0l1.15625 -4.96875q0.09375 -0.421875 0.140625 -0.71875q0.046875 -0.3125 0.046875 -0.625q0 -0.65625 -0.328125 -0.984375q-0.3125 -0.328125 -1.15625 -0.328125q-0.59375 0 -1.3125 0.328125q-0.71875 0.328125 -1.390625 0.78125l-1.515625 6.515625l-1.46875 0l2.8125 -12.15625l1.46875 0l-1.015625 4.390625q0.828125 -0.578125 1.5625 -0.890625q0.734375 -0.3125 1.5 -0.3125q1.140625 0 1.78125 0.578125q0.640625 0.5625 0.640625 1.65625zm6.015625 0.234375l-1.890625 0l0.515625 -2.234375l1.890625 0l-0.515625 2.234375zm-1.5 6.5l-1.890625 0l0.515625 -2.234375l1.890625 0l-0.515625 2.234375zm18.328125 -5.640625q0 1.171875 -0.359375 2.25q-0.359375 1.078125 -1.015625 1.875q-0.671875 0.828125 -1.5625 1.296875q-0.890625 0.46875 -2.078125 0.46875q-1.5625 0 -2.4375 -0.890625q-0.859375 -0.890625 -0.859375 -2.453125q0 -1.171875 0.34375 -2.234375q0.359375 -1.0625 1.03125 -1.890625q0.65625 -0.796875 1.59375 -1.265625q0.9375 -0.484375 2.0625 -0.484375q1.5 0 2.390625 0.859375q0.890625 0.859375 0.890625 2.46875zm-2.390625 3.296875q0.421875 -0.625 0.640625 -1.4375q0.234375 -0.828125 0.234375 -1.75q0 -1.09375 -0.53125 -1.65625q-0.515625 -0.5625 -1.46875 -0.5625q-0.765625 0 -1.375 0.375q-0.59375 0.359375 -1.03125 0.984375q-0.421875 0.625 -0.65625 1.453125q-0.21875 0.828125 -0.21875 1.71875q0 1.078125 0.515625 1.65625q0.53125 0.578125 1.5 0.578125q0.75 0 1.359375 -0.359375q0.609375 -0.359375 1.03125 -1.0zm10.6328125 -8.453125l-0.078125 0q-0.234375 -0.078125 -0.609375 -0.140625q-0.375 -0.078125 -0.671875 -0.078125q-0.953125 0 -1.4375 0.484375q-0.484375 0.484375 -0.71875 1.5l-0.078125 0.296875l2.65625 0l-0.28125 1.171875l-2.609375 0l-1.703125 7.5625l-1.484375 0l1.703125 -7.5625l-0.984375 0l0.28125 -1.171875l0.984375 0l0.0625 -0.28125q0.328125 -1.53125 1.25 -2.375q0.9375 -0.84375 2.40625 -0.84375q0.5 0 0.890625 0.046875q0.40625 0.046875 0.71875 0.109375l-0.296875 1.28125zm5.625 0l-0.078125 0q-0.234375 -0.078125 -0.609375 -0.140625q-0.375 -0.078125 -0.671875 -0.078125q-0.953125 0 -1.4375 0.484375q-0.484375 0.484375 -0.71875 1.5l-0.078125 0.296875l2.65625 0l-0.28125 1.171875l-2.609375 0l-1.703125 7.5625l-1.484375 0l1.703125 -7.5625l-0.984375 0l0.28125 -1.171875l0.984375 0l0.0625 -0.28125q0.328125 -1.53125 1.25 -2.375q0.9375 -0.84375 2.40625 -0.84375q0.5 0 0.890625 0.046875q0.40625 0.046875 0.71875 0.109375l-0.296875 1.28125z" fill-rule="nonzero"/><path fill="#f3f3f3" d="m88.64304 103.1601l112.314964 0l0 38.3937l-112.314964 0z" fill-rule="evenodd"/><path stroke="#000000" stroke-width="1.0" stroke-linejoin="round" stroke-linecap="butt" d="m88.64304 103.1601l112.314964 0l0 38.3937l-112.314964 0z" fill-rule="evenodd"/><path fill="#000000" d="m110.494804 123.49946q0 -0.84375 0.234375 -1.5625q0.25 -0.71875 0.703125 -1.25q0.453125 -0.53125 1.109375 -0.828125q0.65625 -0.3125 1.46875 -0.3125q0.8125 0 1.46875 0.3125q0.65625 0.296875 1.109375 0.828125q0.453125 0.53125 0.703125 1.25q0.25 0.71875 0.25 1.5625l0 0.15625q0 0.828125 -0.25 1.546875q-0.25 0.71875 -0.703125 1.25q-0.453125 0.53125 -1.109375 0.828125q-0.640625 0.296875 -1.453125 0.296875q-0.828125 0 -1.484375 -0.296875q-0.65625 -0.296875 -1.109375 -0.828125q-0.453125 -0.53125 -0.703125 -1.25q-0.234375 -0.71875 -0.234375 -1.546875l0 -0.15625zm1.328125 0.15625q0 0.5625 0.125 1.09375q0.140625 0.515625 0.40625 0.90625q0.28125 0.390625 0.6875 0.625q0.421875 0.21875 0.984375 0.21875q0.53125 0 0.9375 -0.21875q0.421875 -0.234375 0.6875 -0.625q0.28125 -0.390625 0.421875 -0.90625q0.140625 -0.53125 0.140625 -1.09375l0 -0.15625q0 -0.578125 -0.140625 -1.09375q-0.140625 -0.515625 -0.421875 -0.90625q-0.265625 -0.390625 -0.6875 -0.625q-0.40625 -0.234375 -0.953125 -0.234375q-0.5625 0 -0.96875 0.234375q-0.40625 0.234375 -0.6875 0.625q-0.265625 0.390625 -0.40625 0.90625q-0.125 0.515625 -0.125 1.09375l0 0.15625zm8.045181 -7.21875l3.953125 0l0 9.859375l2.53125 0l0 1.140625l-6.484375 0l0 -1.140625l2.640625 0l0 -8.703125l-2.640625 0l0 -1.15625zm8.342049 7.0625q0 -0.859375 0.21875 -1.578125q0.21875 -0.734375 0.609375 -1.25q0.40625 -0.53125 0.984375 -0.828125q0.578125 -0.296875 1.28125 -0.296875q0.6875 0 1.203125 0.234375q0.53125 0.234375 0.90625 0.671875l0 -4.015625l1.328125 0l0 11.0l-1.21875 0l-0.0625 -0.8125q-0.375 0.46875 -0.921875 0.71875q-0.53125 0.234375 -1.25 0.234375q-0.703125 0 -1.28125 -0.296875q-0.5625 -0.296875 -0.96875 -0.828125q-0.390625 -0.53125 -0.609375 -1.25q-0.21875 -0.71875 -0.21875 -1.546875l0 -0.15625zm1.3125 0.15625q0 0.5625 0.125 1.078125q0.125 0.5 0.375 0.890625q0.25 0.375 0.640625 0.609375q0.40625 0.21875 0.953125 0.21875q0.34375 0 0.609375 -0.078125q0.265625 -0.078125 0.484375 -0.21875q0.234375 -0.15625 0.40625 -0.359375q0.171875 -0.203125 0.296875 -0.453125l0 -3.59375q-0.25 -0.46875 -0.6875 -0.765625q-0.4375 -0.3125 -1.09375 -0.3125q-0.5625 0 -0.96875 0.234375q-0.390625 0.21875 -0.640625 0.609375q-0.25 0.390625 -0.375 0.90625q-0.125 0.515625 -0.125 1.078125l0 0.15625zm16.277863 -0.15625q0 -0.859375 0.21875 -1.578125q0.21875 -0.734375 0.609375 -1.25q0.40625 -0.53125 0.984375 -0.828125q0.578125 -0.296875 1.28125 -0.296875q0.6875 0 1.203125 0.234375q0.53125 0.234375 0.90625 0.671875l0 -4.015625l1.328125 0l0 11.0l-1.21875 0l-0.0625 -0.8125q-0.375 0.46875 -0.921875 0.71875q-0.53125 0.234375 -1.25 0.234375q-0.703125 0 -1.28125 -0.296875q-0.5625 -0.296875 -0.96875 -0.828125q-0.390625 -0.53125 -0.609375 -1.25q-0.21875 -0.71875 -0.21875 -1.546875l0 -0.15625zm1.3125 0.15625q0 0.5625 0.125 1.078125q0.125 0.5 0.375 0.890625q0.25 0.375 0.640625 0.609375q0.40625 0.21875 0.953125 0.21875q0.34375 0 0.609375 -0.078125q0.265625 -0.078125 0.484375 -0.21875q0.234375 -0.15625 0.40625 -0.359375q0.171875 -0.203125 0.296875 -0.453125l0 -3.59375q-0.25 -0.46875 -0.6875 -0.765625q-0.4375 -0.3125 -1.09375 -0.3125q-0.5625 0 -0.96875 0.234375q-0.390625 0.21875 -0.640625 0.609375q-0.25 0.390625 -0.375 0.90625q-0.125 0.515625 -0.125 1.078125l0 0.15625zm12.810822 3.78125q-0.078125 -0.15625 -0.125 -0.375q-0.046875 -0.21875 -0.0625 -0.46875q-0.203125 0.203125 -0.453125 0.390625q-0.234375 0.171875 -0.53125 0.3125q-0.296875 0.125 -0.640625 0.203125q-0.34375 0.078125 -0.71875 0.078125q-0.609375 0 -1.109375 -0.171875q-0.5 -0.1875 -0.84375 -0.484375q-0.34375 -0.3125 -0.546875 -0.71875q-0.1875 -0.421875 -0.1875 -0.90625q0 -0.640625 0.25 -1.125q0.265625 -0.484375 0.734375 -0.796875q0.46875 -0.3125 1.109375 -0.46875q0.65625 -0.15625 1.46875 -0.15625l1.453125 0l0 -0.609375q0 -0.359375 -0.140625 -0.640625q-0.125 -0.28125 -0.359375 -0.46875q-0.234375 -0.203125 -0.578125 -0.296875q-0.34375 -0.109375 -0.765625 -0.109375q-0.390625 0 -0.703125 0.09375q-0.3125 0.09375 -0.53125 0.265625q-0.203125 0.15625 -0.328125 0.390625q-0.109375 0.21875 -0.109375 0.46875l-1.328125 0q0 -0.421875 0.203125 -0.828125q0.21875 -0.40625 0.609375 -0.734375q0.40625 -0.328125 0.96875 -0.53125q0.578125 -0.203125 1.296875 -0.203125q0.65625 0 1.21875 0.171875q0.5625 0.15625 0.96875 0.484375q0.421875 0.328125 0.65625 0.8125q0.234375 0.484375 0.234375 1.140625l0 3.59375q0 0.390625 0.0625 0.828125q0.078125 0.421875 0.21875 0.75l0 0.109375l-1.390625 0zm-2.328125 -1.015625q0.375 0 0.703125 -0.09375q0.34375 -0.09375 0.625 -0.25q0.28125 -0.171875 0.46875 -0.375q0.203125 -0.21875 0.328125 -0.453125l0 -1.5625l-1.234375 0q-1.15625 0 -1.8125 0.34375q-0.640625 0.34375 -0.640625 1.078125q0 0.28125 0.09375 0.53125q0.109375 0.234375 0.296875 0.421875q0.1875 0.171875 0.484375 0.265625q0.296875 0.09375 0.6875 0.09375zm9.170181 -8.609375l0 1.875l2.953125 0l0 1.03125l-2.953125 0l0 4.203125q0 0.453125 0.109375 0.75q0.125 0.296875 0.328125 0.46875q0.203125 0.171875 0.453125 0.25q0.265625 0.0625 0.5625 0.0625q0.21875 0 0.4375 -0.015625q0.234375 -0.03125 0.453125 -0.0625q0.21875 -0.046875 0.40625 -0.078125q0.1875 -0.046875 0.3125 -0.0625l0.1875 0.9375q-0.171875 0.09375 -0.40625 0.171875q-0.234375 0.078125 -0.515625 0.125q-0.28125 0.046875 -0.59375 0.078125q-0.3125 0.03125 -0.609375 0.03125q-0.515625 0 -0.96875 -0.140625q-0.4375 -0.15625 -0.78125 -0.46875q-0.328125 -0.3125 -0.515625 -0.8125q-0.1875 -0.515625 -0.1875 -1.234375l0 -4.203125l-2.03125 0l0 -1.03125l2.03125 0l0 -1.875l1.328125 0zm10.748306 9.625q-0.078125 -0.15625 -0.125 -0.375q-0.046875 -0.21875 -0.0625 -0.46875q-0.203125 0.203125 -0.453125 0.390625q-0.234375 0.171875 -0.53125 0.3125q-0.296875 0.125 -0.640625 0.203125q-0.34375 0.078125 -0.71875 0.078125q-0.609375 0 -1.109375 -0.171875q-0.5 -0.1875 -0.84375 -0.484375q-0.34375 -0.3125 -0.546875 -0.71875q-0.1875 -0.421875 -0.1875 -0.90625q0 -0.640625 0.25 -1.125q0.265625 -0.484375 0.734375 -0.796875q0.46875 -0.3125 1.109375 -0.46875q0.65625 -0.15625 1.46875 -0.15625l1.453125 0l0 -0.609375q0 -0.359375 -0.140625 -0.640625q-0.125 -0.28125 -0.359375 -0.46875q-0.234375 -0.203125 -0.578125 -0.296875q-0.34375 -0.109375 -0.765625 -0.109375q-0.390625 0 -0.703125 0.09375q-0.3125 0.09375 -0.53125 0.265625q-0.203125 0.15625 -0.328125 0.390625q-0.109375 0.21875 -0.109375 0.46875l-1.328125 0q0 -0.421875 0.203125 -0.828125q0.21875 -0.40625 0.609375 -0.734375q0.40625 -0.328125 0.96875 -0.53125q0.578125 -0.203125 1.296875 -0.203125q0.65625 0 1.21875 0.171875q0.5625 0.15625 0.96875 0.484375q0.421875 0.328125 0.65625 0.8125q0.234375 0.484375 0.234375 1.140625l0 3.59375q0 0.390625 0.0625 0.828125q0.078125 0.421875 0.21875 0.75l0 0.109375l-1.390625 0zm-2.328125 -1.015625q0.375 0 0.703125 -0.09375q0.34375 -0.09375 0.625 -0.25q0.28125 -0.171875 0.46875 -0.375q0.203125 -0.21875 0.328125 -0.453125l0 -1.5625l-1.234375 0q-1.15625 0 -1.8125 0.34375q-0.640625 0.34375 -0.640625 1.078125q0 0.28125 0.09375 0.53125q0.109375 0.234375 0.296875 0.421875q0.1875 0.171875 0.484375 0.265625q0.296875 0.09375 0.6875 0.09375z" fill-rule="nonzero"/><path fill="#f4cccc" d="m220.92914 30.195538l112.31494 0l0 38.393703l-112.31494 0z" fill-rule="evenodd"/><path stroke="#000000" stroke-width="1.0" stroke-linejoin="round" stroke-linecap="butt" d="m220.92914 30.195538l112.31494 0l0 38.393703l-112.31494 0z" fill-rule="evenodd"/><path fill="#000000" d="m233.10101 55.471138q-0.984375 0 -1.75 -0.25q-0.765625 -0.25 -1.28125 -0.53125l0.328125 -1.5625l0.078125 0q0.15625 0.140625 0.421875 0.328125q0.265625 0.1875 0.671875 0.375q0.359375 0.1875 0.828125 0.3125q0.484375 0.125 1.015625 0.125q1.109375 0 1.734375 -0.40625q0.625 -0.40625 0.625 -1.1875q0 -0.421875 -0.328125 -0.640625q-0.3125 -0.21875 -0.921875 -0.359375q-0.296875 -0.078125 -0.734375 -0.15625q-0.421875 -0.09375 -0.859375 -0.203125q-0.90625 -0.265625 -1.34375 -0.75q-0.4375 -0.484375 -0.4375 -1.1875q0 -0.609375 0.265625 -1.140625q0.265625 -0.53125 0.78125 -0.984375q0.5 -0.421875 1.265625 -0.671875q0.78125 -0.265625 1.734375 -0.265625q0.78125 0 1.546875 0.203125q0.78125 0.1875 1.28125 0.46875l-0.3125 1.5l-0.078125 0q-0.125 -0.09375 -0.390625 -0.265625q-0.25 -0.171875 -0.640625 -0.359375q-0.328125 -0.140625 -0.78125 -0.25q-0.453125 -0.109375 -0.9375 -0.109375q-0.96875 0 -1.578125 0.40625q-0.609375 0.40625 -0.609375 1.125q0 0.390625 0.296875 0.65625q0.296875 0.25 0.90625 0.40625q0.375 0.09375 0.796875 0.171875q0.421875 0.078125 0.8125 0.171875q0.90625 0.234375 1.359375 0.71875q0.453125 0.46875 0.453125 1.1875q0 0.59375 -0.28125 1.171875q-0.28125 0.578125 -0.828125 1.0q-0.546875 0.4375 -1.34375 0.703125q-0.78125 0.25 -1.765625 0.25zm18.492188 -8.953125l-4.0625 8.734375l-1.375 0l-0.875 -6.75l-3.59375 6.75l-1.359375 0l-0.546875 -8.734375l1.5 0l0.21875 6.75l3.5625 -6.75l1.234375 0l0.84375 6.75l2.90625 -6.75l1.546875 0zm4.484375 -2.984375l-0.34375 1.53125l-1.65625 0l0.34375 -1.53125l1.65625 0zm-0.78125 2.984375l-2.015625 8.734375l-1.46875 0l2.015625 -8.734375l1.46875 0zm7.4375 0l-0.265625 1.1875l-3.03125 0l-0.9375 4.03125q-0.078125 0.296875 -0.140625 0.703125q-0.0625 0.390625 -0.0625 0.625q0 0.5625 0.28125 0.84375q0.296875 0.28125 1.078125 0.28125q0.328125 0 0.765625 -0.109375q0.4375 -0.109375 0.59375 -0.171875l0.078125 0l-0.265625 1.265625q-0.4375 0.109375 -0.9375 0.171875q-0.5 0.078125 -0.875 0.078125q-1.078125 0 -1.671875 -0.46875q-0.59375 -0.484375 -0.59375 -1.5q0 -0.25 0.03125 -0.5q0.046875 -0.25 0.109375 -0.5625l1.078125 -4.6875l-0.984375 0l0.265625 -1.1875l0.984375 0l0.59375 -2.5l1.46875 0l-0.59375 2.5l3.03125 0zm3.5390625 8.9375q-0.828125 0 -1.46875 -0.203125q-0.625 -0.203125 -1.109375 -0.625q-0.453125 -0.40625 -0.703125 -1.015625q-0.25 -0.625 -0.25 -1.4375q0 -1.234375 0.375 -2.296875q0.390625 -1.0625 1.09375 -1.859375q0.671875 -0.78125 1.671875 -1.234375q1.0 -0.46875 2.15625 -0.46875q0.765625 0 1.4375 0.21875q0.6875 0.203125 1.203125 0.5l-0.328125 1.578125l-0.078125 0q-0.15625 -0.140625 -0.390625 -0.328125q-0.234375 -0.1875 -0.5625 -0.34375q-0.3125 -0.171875 -0.703125 -0.28125q-0.390625 -0.125 -0.890625 -0.125q-1.515625 0 -2.484375 1.28125q-0.953125 1.28125 -0.953125 3.125q0 1.09375 0.5625 1.6875q0.578125 0.59375 1.625 0.59375q0.484375 0 0.96875 -0.140625q0.5 -0.140625 0.84375 -0.296875q0.390625 -0.1875 0.71875 -0.390625q0.328125 -0.203125 0.46875 -0.296875l0.09375 0l-0.3125 1.59375q-0.6875 0.3125 -1.453125 0.546875q-0.75 0.21875 -1.53125 0.21875zm13.3046875 -6.9375q0 0.1875 -0.046875 0.515625q-0.03125 0.3125 -0.09375 0.546875l-1.3125 5.671875l-1.46875 0l1.15625 -4.96875q0.09375 -0.421875 0.140625 -0.71875q0.046875 -0.3125 0.046875 -0.625q0 -0.65625 -0.328125 -0.984375q-0.3125 -0.328125 -1.15625 -0.328125q-0.59375 0 -1.3125 0.328125q-0.71875 0.328125 -1.390625 0.78125l-1.515625 6.515625l-1.46875 0l2.8125 -12.15625l1.46875 0l-1.015625 4.390625q0.828125 -0.578125 1.5625 -0.890625q0.734375 -0.3125 1.5 -0.3125q1.140625 0 1.78125 0.578125q0.640625 0.5625 0.640625 1.65625zm6.015625 0.234375l-1.890625 0l0.515625 -2.234375l1.890625 0l-0.515625 2.234375zm-1.5 6.5l-1.890625 0l0.515625 -2.234375l1.890625 0l-0.515625 2.234375zm18.328125 -5.640625q0 1.171875 -0.359375 2.25q-0.359375 1.078125 -1.015625 1.875q-0.671875 0.828125 -1.5625 1.296875q-0.890625 0.46875 -2.078125 0.46875q-1.5625 0 -2.4375 -0.890625q-0.859375 -0.890625 -0.859375 -2.453125q0 -1.171875 0.34375 -2.234375q0.359375 -1.0625 1.03125 -1.890625q0.65625 -0.796875 1.59375 -1.265625q0.9375 -0.484375 2.0625 -0.484375q1.5 0 2.390625 0.859375q0.890625 0.859375 0.890625 2.46875zm-2.390625 3.296875q0.421875 -0.625 0.640625 -1.4375q0.234375 -0.828125 0.234375 -1.75q0 -1.09375 -0.53125 -1.65625q-0.515625 -0.5625 -1.46875 -0.5625q-0.765625 0 -1.375 0.375q-0.59375 0.359375 -1.03125 0.984375q-0.421875 0.625 -0.65625 1.453125q-0.21875 0.828125 -0.21875 1.71875q0 1.078125 0.515625 1.65625q0.53125 0.578125 1.5 0.578125q0.75 0 1.359375 -0.359375q0.609375 -0.359375 1.03125 -1.0zm10.6328125 -8.453125l-0.078125 0q-0.234375 -0.078125 -0.609375 -0.140625q-0.375 -0.078125 -0.671875 -0.078125q-0.953125 0 -1.4375 0.484375q-0.484375 0.484375 -0.71875 1.5l-0.078125 0.296875l2.65625 0l-0.28125 1.171875l-2.609375 0l-1.703125 7.5625l-1.484375 0l1.703125 -7.5625l-0.984375 0l0.28125 -1.171875l0.984375 0l0.0625 -0.28125q0.328125 -1.53125 1.25 -2.375q0.9375 -0.84375 2.40625 -0.84375q0.5 0 0.890625 0.046875q0.40625 0.046875 0.71875 0.109375l-0.296875 1.28125zm5.625 0l-0.078125 0q-0.234375 -0.078125 -0.609375 -0.140625q-0.375 -0.078125 -0.671875 -0.078125q-0.953125 0 -1.4375 0.484375q-0.484375 0.484375 -0.71875 1.5l-0.078125 0.296875l2.65625 0l-0.28125 1.171875l-2.609375 0l-1.703125 7.5625l-1.484375 0l1.703125 -7.5625l-0.984375 0l0.28125 -1.171875l0.984375 0l0.0625 -0.28125q0.328125 -1.53125 1.25 -2.375q0.9375 -0.84375 2.40625 -0.84375q0.5 0 0.890625 0.046875q0.40625 0.046875 0.71875 0.109375l-0.296875 1.28125z" fill-rule="nonzero"/><path fill="#f3f3f3" d="m278.52756 103.15879l112.31497 0l0 38.3937l-112.31497 0z" fill-rule="evenodd"/><path stroke="#000000" stroke-width="1.0" stroke-linejoin="round" stroke-linecap="butt" d="m278.52756 103.15879l112.31497 0l0 38.3937l-112.31497 0z" fill-rule="evenodd"/><path fill="#000000" d="m300.3793 123.498146q0 -0.84375 0.234375 -1.5625q0.25 -0.71875 0.703125 -1.25q0.453125 -0.53125 1.109375 -0.828125q0.65625 -0.3125 1.46875 -0.3125q0.8125 0 1.46875 0.3125q0.65625 0.296875 1.109375 0.828125q0.453125 0.53125 0.703125 1.25q0.25 0.71875 0.25 1.5625l0 0.15625q0 0.828125 -0.25 1.546875q-0.25 0.71875 -0.703125 1.25q-0.453125 0.53125 -1.109375 0.828125q-0.640625 0.296875 -1.453125 0.296875q-0.828125 0 -1.484375 -0.296875q-0.65625 -0.296875 -1.109375 -0.828125q-0.453125 -0.53125 -0.703125 -1.25q-0.234375 -0.71875 -0.234375 -1.546875l0 -0.15625zm1.328125 0.15625q0 0.5625 0.125 1.09375q0.140625 0.515625 0.40625 0.90625q0.28125 0.390625 0.6875 0.625q0.421875 0.21875 0.984375 0.21875q0.53125 0 0.9375 -0.21875q0.421875 -0.234375 0.6875 -0.625q0.28125 -0.390625 0.421875 -0.90625q0.140625 -0.53125 0.140625 -1.09375l0 -0.15625q0 -0.578125 -0.140625 -1.09375q-0.140625 -0.515625 -0.421875 -0.90625q-0.265625 -0.390625 -0.6875 -0.625q-0.40625 -0.234375 -0.953125 -0.234375q-0.5625 0 -0.96875 0.234375q-0.40625 0.234375 -0.6875 0.625q-0.265625 0.390625 -0.40625 0.90625q-0.125 0.515625 -0.125 1.09375l0 0.15625zm8.045197 -7.21875l3.953125 0l0 9.859375l2.53125 0l0 1.140625l-6.484375 0l0 -1.140625l2.640625 0l0 -8.703125l-2.640625 0l0 -1.15625zm8.342041 7.0625q0 -0.859375 0.21875 -1.578125q0.21875 -0.734375 0.609375 -1.25q0.40625 -0.53125 0.984375 -0.828125q0.578125 -0.296875 1.28125 -0.296875q0.6875 0 1.203125 0.234375q0.53125 0.234375 0.90625 0.671875l0 -4.015625l1.328125 0l0 11.0l-1.21875 0l-0.0625 -0.8125q-0.375 0.46875 -0.921875 0.71875q-0.53125 0.234375 -1.25 0.234375q-0.703125 0 -1.28125 -0.296875q-0.5625 -0.296875 -0.96875 -0.828125q-0.390625 -0.53125 -0.609375 -1.25q-0.21875 -0.71875 -0.21875 -1.546875l0 -0.15625zm1.3125 0.15625q0 0.5625 0.125 1.078125q0.125 0.5 0.375 0.890625q0.25 0.375 0.640625 0.609375q0.40625 0.21875 0.953125 0.21875q0.34375 0 0.609375 -0.078125q0.265625 -0.078125 0.484375 -0.21875q0.234375 -0.15625 0.40625 -0.359375q0.171875 -0.203125 0.296875 -0.453125l0 -3.59375q-0.25 -0.46875 -0.6875 -0.765625q-0.4375 -0.3125 -1.09375 -0.3125q-0.5625 0 -0.96875 0.234375q-0.390625 0.21875 -0.640625 0.609375q-0.25 0.390625 -0.375 0.90625q-0.125 0.515625 -0.125 1.078125l0 0.15625zm16.277863 -0.15625q0 -0.859375 0.21875 -1.578125q0.21875 -0.734375 0.609375 -1.25q0.40625 -0.53125 0.984375 -0.828125q0.578125 -0.296875 1.28125 -0.296875q0.6875 0 1.203125 0.234375q0.53125 0.234375 0.90625 0.671875l0 -4.015625l1.328125 0l0 11.0l-1.21875 0l-0.0625 -0.8125q-0.375 0.46875 -0.921875 0.71875q-0.53125 0.234375 -1.25 0.234375q-0.703125 0 -1.28125 -0.296875q-0.5625 -0.296875 -0.96875 -0.828125q-0.390625 -0.53125 -0.609375 -1.25q-0.21875 -0.71875 -0.21875 -1.546875l0 -0.15625zm1.3125 0.15625q0 0.5625 0.125 1.078125q0.125 0.5 0.375 0.890625q0.25 0.375 0.640625 0.609375q0.40625 0.21875 0.953125 0.21875q0.34375 0 0.609375 -0.078125q0.265625 -0.078125 0.484375 -0.21875q0.234375 -0.15625 0.40625 -0.359375q0.171875 -0.203125 0.296875 -0.453125l0 -3.59375q-0.25 -0.46875 -0.6875 -0.765625q-0.4375 -0.3125 -1.09375 -0.3125q-0.5625 0 -0.96875 0.234375q-0.390625 0.21875 -0.640625 0.609375q-0.25 0.390625 -0.375 0.90625q-0.125 0.515625 -0.125 1.078125l0 0.15625zm12.810822 3.78125q-0.078125 -0.15625 -0.125 -0.375q-0.046875 -0.21875 -0.0625 -0.46875q-0.203125 0.203125 -0.453125 0.390625q-0.234375 0.171875 -0.53125 0.3125q-0.296875 0.125 -0.640625 0.203125q-0.34375 0.078125 -0.71875 0.078125q-0.609375 0 -1.109375 -0.171875q-0.5 -0.1875 -0.84375 -0.484375q-0.34375 -0.3125 -0.546875 -0.71875q-0.1875 -0.421875 -0.1875 -0.90625q0 -0.640625 0.25 -1.125q0.265625 -0.484375 0.734375 -0.796875q0.46875 -0.3125 1.109375 -0.46875q0.65625 -0.15625 1.46875 -0.15625l1.453125 0l0 -0.609375q0 -0.359375 -0.140625 -0.640625q-0.125 -0.28125 -0.359375 -0.46875q-0.234375 -0.203125 -0.578125 -0.296875q-0.34375 -0.109375 -0.765625 -0.109375q-0.390625 0 -0.703125 0.09375q-0.3125 0.09375 -0.53125 0.265625q-0.203125 0.15625 -0.328125 0.390625q-0.109375 0.21875 -0.109375 0.46875l-1.328125 0q0 -0.421875 0.203125 -0.828125q0.21875 -0.40625 0.609375 -0.734375q0.40625 -0.328125 0.96875 -0.53125q0.578125 -0.203125 1.296875 -0.203125q0.65625 0 1.21875 0.171875q0.5625 0.15625 0.96875 0.484375q0.421875 0.328125 0.65625 0.8125q0.234375 0.484375 0.234375 1.140625l0 3.59375q0 0.390625 0.0625 0.828125q0.078125 0.421875 0.21875 0.75l0 0.109375l-1.390625 0zm-2.328125 -1.015625q0.375 0 0.703125 -0.09375q0.34375 -0.09375 0.625 -0.25q0.28125 -0.171875 0.46875 -0.375q0.203125 -0.21875 0.328125 -0.453125l0 -1.5625l-1.234375 0q-1.15625 0 -1.8125 0.34375q-0.640625 0.34375 -0.640625 1.078125q0 0.28125 0.09375 0.53125q0.109375 0.234375 0.296875 0.421875q0.1875 0.171875 0.484375 0.265625q0.296875 0.09375 0.6875 0.09375zm9.170197 -8.609375l0 1.875l2.953125 0l0 1.03125l-2.953125 0l0 4.203125q0 0.453125 0.109375 0.75q0.125 0.296875 0.328125 0.46875q0.203125 0.171875 0.453125 0.25q0.265625 0.0625 0.5625 0.0625q0.21875 0 0.4375 -0.015625q0.234375 -0.03125 0.453125 -0.0625q0.21875 -0.046875 0.40625 -0.078125q0.1875 -0.046875 0.3125 -0.0625l0.1875 0.9375q-0.171875 0.09375 -0.40625 0.171875q-0.234375 0.078125 -0.515625 0.125q-0.28125 0.046875 -0.59375 0.078125q-0.3125 0.03125 -0.609375 0.03125q-0.515625 0 -0.96875 -0.140625q-0.4375 -0.15625 -0.78125 -0.46875q-0.328125 -0.3125 -0.515625 -0.8125q-0.1875 -0.515625 -0.1875 -1.234375l0 -4.203125l-2.03125 0l0 -1.03125l2.03125 0l0 -1.875l1.328125 0zm10.748291 9.625q-0.078125 -0.15625 -0.125 -0.375q-0.046875 -0.21875 -0.0625 -0.46875q-0.203125 0.203125 -0.453125 0.390625q-0.234375 0.171875 -0.53125 0.3125q-0.296875 0.125 -0.640625 0.203125q-0.34375 0.078125 -0.71875 0.078125q-0.609375 0 -1.109375 -0.171875q-0.5 -0.1875 -0.84375 -0.484375q-0.34375 -0.3125 -0.546875 -0.71875q-0.1875 -0.421875 -0.1875 -0.90625q0 -0.640625 0.25 -1.125q0.265625 -0.484375 0.734375 -0.796875q0.46875 -0.3125 1.109375 -0.46875q0.65625 -0.15625 1.46875 -0.15625l1.453125 0l0 -0.609375q0 -0.359375 -0.140625 -0.640625q-0.125 -0.28125 -0.359375 -0.46875q-0.234375 -0.203125 -0.578125 -0.296875q-0.34375 -0.109375 -0.765625 -0.109375q-0.390625 0 -0.703125 0.09375q-0.3125 0.09375 -0.53125 0.265625q-0.203125 0.15625 -0.328125 0.390625q-0.109375 0.21875 -0.109375 0.46875l-1.328125 0q0 -0.421875 0.203125 -0.828125q0.21875 -0.40625 0.609375 -0.734375q0.40625 -0.328125 0.96875 -0.53125q0.578125 -0.203125 1.296875 -0.203125q0.65625 0 1.21875 0.171875q0.5625 0.15625 0.96875 0.484375q0.421875 0.328125 0.65625 0.8125q0.234375 0.484375 0.234375 1.140625l0 3.59375q0 0.390625 0.0625 0.828125q0.078125 0.421875 0.21875 0.75l0 0.109375l-1.390625 0zm-2.328125 -1.015625q0.375 0 0.703125 -0.09375q0.34375 -0.09375 0.625 -0.25q0.28125 -0.171875 0.46875 -0.375q0.203125 -0.21875 0.328125 -0.453125l0 -1.5625l-1.234375 0q-1.15625 0 -1.8125 0.34375q-0.640625 0.34375 -0.640625 1.078125q0 0.28125 0.09375 0.53125q0.109375 0.234375 0.296875 0.421875q0.1875 0.171875 0.484375 0.265625q0.296875 0.09375 0.6875 0.09375z" fill-rule="nonzero"/><path fill="#b7b7b7" d="m278.52756 141.55249l112.31497 0l0 38.393707l-112.31497 0z" fill-rule="evenodd"/><path stroke="#000000" stroke-width="1.0" stroke-linejoin="round" stroke-linecap="butt" d="m278.52756 141.55249l112.31497 0l0 38.393707l-112.31497 0z" fill-rule="evenodd"/><path fill="#000000" d="m299.48172 156.20435l0 1.875l2.953125 0l0 1.03125l-2.953125 0l0 4.203125q0 0.453125 0.109375 0.75q0.125 0.296875 0.328125 0.46875q0.203125 0.171875 0.453125 0.25q0.265625 0.0625 0.5625 0.0625q0.21875 0 0.4375 -0.015625q0.234375 -0.03125 0.453125 -0.0625q0.21875 -0.046875 0.40625 -0.078125q0.1875 -0.046875 0.3125 -0.0625l0.1875 0.9375q-0.171875 0.09375 -0.40625 0.171875q-0.234375 0.078125 -0.515625 0.125q-0.28125 0.046875 -0.59375 0.078125q-0.3125 0.03125 -0.609375 0.03125q-0.515625 0 -0.96875 -0.140625q-0.4375 -0.15625 -0.78125 -0.46875q-0.328125 -0.3125 -0.515625 -0.8125q-0.1875 -0.515625 -0.1875 -1.234375l0 -4.203125l-2.03125 0l0 -1.03125l2.03125 0l0 -1.875l1.328125 0zm9.092072 9.765625q-0.828125 0 -1.515625 -0.28125q-0.671875 -0.28125 -1.15625 -0.78125q-0.484375 -0.5 -0.765625 -1.1875q-0.265625 -0.6875 -0.265625 -1.484375l0 -0.3125q0 -0.9375 0.296875 -1.671875q0.296875 -0.734375 0.796875 -1.25q0.5 -0.515625 1.125 -0.78125q0.640625 -0.28125 1.3125 -0.28125q0.828125 0 1.453125 0.296875q0.625 0.28125 1.03125 0.796875q0.421875 0.515625 0.625 1.21875q0.21875 0.6875 0.21875 1.484375l0 0.59375l-5.53125 0q0.015625 0.53125 0.1875 1.0q0.1875 0.46875 0.5 0.8125q0.328125 0.34375 0.765625 0.546875q0.453125 0.203125 0.984375 0.203125q0.71875 0 1.265625 -0.28125q0.546875 -0.296875 0.90625 -0.765625l0.8125 0.625q-0.1875 0.296875 -0.484375 0.578125q-0.28125 0.265625 -0.671875 0.46875q-0.375 0.203125 -0.859375 0.328125q-0.46875 0.125 -1.03125 0.125zm-0.171875 -6.9375q-0.40625 0 -0.765625 0.15625q-0.359375 0.140625 -0.640625 0.421875q-0.28125 0.28125 -0.484375 0.703125q-0.203125 0.40625 -0.28125 0.9375l4.171875 0l0 -0.109375q-0.03125 -0.375 -0.15625 -0.75q-0.125 -0.390625 -0.375 -0.6875q-0.234375 -0.296875 -0.609375 -0.484375q-0.359375 -0.1875 -0.859375 -0.1875zm6.154541 -0.953125l0.03125 0.734375q0.234375 -0.40625 0.609375 -0.625q0.390625 -0.234375 0.9375 -0.25q1.0625 0 1.421875 0.828125q0.234375 -0.359375 0.609375 -0.578125q0.375 -0.234375 0.90625 -0.25q0.859375 0 1.3125 0.53125q0.453125 0.515625 0.453125 1.578125l0 5.78125l-1.25 0l0 -5.796875q0 -0.96875 -0.90625 -0.96875q-0.234375 0 -0.40625 0.0625q-0.171875 0.0625 -0.28125 0.1875q-0.109375 0.109375 -0.1875 0.25q-0.0625 0.140625 -0.078125 0.296875l0 5.96875l-1.265625 0l0 -5.796875q0 -0.46875 -0.203125 -0.71875q-0.203125 -0.25 -0.65625 -0.25q-0.421875 0 -0.65625 0.171875q-0.21875 0.15625 -0.328125 0.4375l0 6.15625l-1.25 0l0 -7.75l1.1875 0zm14.717072 3.96875q0 0.828125 -0.203125 1.546875q-0.203125 0.71875 -0.59375 1.25q-0.375 0.53125 -0.953125 0.828125q-0.5625 0.296875 -1.296875 0.296875q-0.703125 0 -1.25 -0.21875q-0.53125 -0.234375 -0.921875 -0.671875l0 3.734375l-1.328125 0l0 -10.734375l1.21875 0l0.0625 0.84375q0.375 -0.46875 0.921875 -0.71875q0.5625 -0.265625 1.28125 -0.265625q0.734375 0 1.3125 0.296875q0.578125 0.296875 0.953125 0.828125q0.390625 0.515625 0.59375 1.25q0.203125 0.71875 0.203125 1.578125l0 0.15625zm-1.328125 -0.15625q0 -0.5625 -0.125 -1.078125q-0.125 -0.515625 -0.390625 -0.90625q-0.25 -0.390625 -0.65625 -0.609375q-0.40625 -0.234375 -0.953125 -0.234375q-0.640625 0 -1.078125 0.296875q-0.4375 0.296875 -0.6875 0.765625l0 3.734375q0.25 0.453125 0.671875 0.75q0.4375 0.28125 1.109375 0.28125q0.546875 0 0.9375 -0.234375q0.40625 -0.234375 0.65625 -0.625q0.265625 -0.390625 0.390625 -0.90625q0.125 -0.515625 0.125 -1.078125l0 -0.15625zm12.137238 0q0 -0.859375 0.21875 -1.578125q0.21875 -0.734375 0.609375 -1.25q0.40625 -0.53125 0.984375 -0.828125q0.578125 -0.296875 1.28125 -0.296875q0.6875 0 1.203125 0.234375q0.53125 0.234375 0.90625 0.671875l0 -4.015625l1.328125 0l0 11.0l-1.21875 0l-0.0625 -0.8125q-0.375 0.46875 -0.921875 0.71875q-0.53125 0.234375 -1.25 0.234375q-0.703125 0 -1.28125 -0.296875q-0.5625 -0.296875 -0.96875 -0.828125q-0.390625 -0.53125 -0.609375 -1.25q-0.21875 -0.71875 -0.21875 -1.546875l0 -0.15625zm1.3125 0.15625q0 0.5625 0.125 1.078125q0.125 0.5 0.375 0.890625q0.25 0.375 0.640625 0.609375q0.40625 0.21875 0.953125 0.21875q0.34375 0 0.609375 -0.078125q0.265625 -0.078125 0.484375 -0.21875q0.234375 -0.15625 0.40625 -0.359375q0.171875 -0.203125 0.296875 -0.453125l0 -3.59375q-0.25 -0.46875 -0.6875 -0.765625q-0.4375 -0.3125 -1.09375 -0.3125q-0.5625 0 -0.96875 0.234375q-0.390625 0.21875 -0.640625 0.609375q-0.25 0.390625 -0.375 0.90625q-0.125 0.515625 -0.125 1.078125l0 0.15625zm12.810791 3.78125q-0.078125 -0.15625 -0.125 -0.375q-0.046875 -0.21875 -0.0625 -0.46875q-0.203125 0.203125 -0.453125 0.390625q-0.234375 0.171875 -0.53125 0.3125q-0.296875 0.125 -0.640625 0.203125q-0.34375 0.078125 -0.71875 0.078125q-0.609375 0 -1.109375 -0.171875q-0.5 -0.1875 -0.84375 -0.484375q-0.34375 -0.3125 -0.546875 -0.71875q-0.1875 -0.421875 -0.1875 -0.90625q0 -0.640625 0.25 -1.125q0.265625 -0.484375 0.734375 -0.796875q0.46875 -0.3125 1.109375 -0.46875q0.65625 -0.15625 1.46875 -0.15625l1.453125 0l0 -0.609375q0 -0.359375 -0.140625 -0.640625q-0.125 -0.28125 -0.359375 -0.46875q-0.234375 -0.203125 -0.578125 -0.296875q-0.34375 -0.109375 -0.765625 -0.109375q-0.390625 0 -0.703125 0.09375q-0.3125 0.09375 -0.53125 0.265625q-0.203125 0.15625 -0.328125 0.390625q-0.109375 0.21875 -0.109375 0.46875l-1.328125 0q0 -0.421875 0.203125 -0.828125q0.21875 -0.40625 0.609375 -0.734375q0.40625 -0.328125 0.96875 -0.53125q0.578125 -0.203125 1.296875 -0.203125q0.65625 0 1.21875 0.171875q0.5625 0.15625 0.96875 0.484375q0.421875 0.328125 0.65625 0.8125q0.234375 0.484375 0.234375 1.140625l0 3.59375q0 0.390625 0.0625 0.828125q0.078125 0.421875 0.21875 0.75l0 0.109375l-1.390625 0zm-2.328125 -1.015625q0.375 0 0.703125 -0.09375q0.34375 -0.09375 0.625 -0.25q0.28125 -0.171875 0.46875 -0.375q0.203125 -0.21875 0.328125 -0.453125l0 -1.5625l-1.234375 0q-1.15625 0 -1.8125 0.34375q-0.640625 0.34375 -0.640625 1.078125q0 0.28125 0.09375 0.53125q0.109375 0.234375 0.296875 0.421875q0.1875 0.171875 0.484375 0.265625q0.296875 0.09375 0.6875 0.09375zm9.170197 -8.609375l0 1.875l2.953125 0l0 1.03125l-2.953125 0l0 4.203125q0 0.453125 0.109375 0.75q0.125 0.296875 0.328125 0.46875q0.203125 0.171875 0.453125 0.25q0.265625 0.0625 0.5625 0.0625q0.21875 0 0.4375 -0.015625q0.234375 -0.03125 0.453125 -0.0625q0.21875 -0.046875 0.40625 -0.078125q0.1875 -0.046875 0.3125 -0.0625l0.1875 0.9375q-0.171875 0.09375 -0.40625 0.171875q-0.234375 0.078125 -0.515625 0.125q-0.28125 0.046875 -0.59375 0.078125q-0.3125 0.03125 -0.609375 0.03125q-0.515625 0 -0.96875 -0.140625q-0.4375 -0.15625 -0.78125 -0.46875q-0.328125 -0.3125 -0.515625 -0.8125q-0.1875 -0.515625 -0.1875 -1.234375l0 -4.203125l-2.03125 0l0 -1.03125l2.03125 0l0 -1.875l1.328125 0zm10.748291 9.625q-0.078125 -0.15625 -0.125 -0.375q-0.046875 -0.21875 -0.0625 -0.46875q-0.203125 0.203125 -0.453125 0.390625q-0.234375 0.171875 -0.53125 0.3125q-0.296875 0.125 -0.640625 0.203125q-0.34375 0.078125 -0.71875 0.078125q-0.609375 0 -1.109375 -0.171875q-0.5 -0.1875 -0.84375 -0.484375q-0.34375 -0.3125 -0.546875 -0.71875q-0.1875 -0.421875 -0.1875 -0.90625q0 -0.640625 0.25 -1.125q0.265625 -0.484375 0.734375 -0.796875q0.46875 -0.3125 1.109375 -0.46875q0.65625 -0.15625 1.46875 -0.15625l1.453125 0l0 -0.609375q0 -0.359375 -0.140625 -0.640625q-0.125 -0.28125 -0.359375 -0.46875q-0.234375 -0.203125 -0.578125 -0.296875q-0.34375 -0.109375 -0.765625 -0.109375q-0.390625 0 -0.703125 0.09375q-0.3125 0.09375 -0.53125 0.265625q-0.203125 0.15625 -0.328125 0.390625q-0.109375 0.21875 -0.109375 0.46875l-1.328125 0q0 -0.421875 0.203125 -0.828125q0.21875 -0.40625 0.609375 -0.734375q0.40625 -0.328125 0.96875 -0.53125q0.578125 -0.203125 1.296875 -0.203125q0.65625 0 1.21875 0.171875q0.5625 0.15625 0.96875 0.484375q0.421875 0.328125 0.65625 0.8125q0.234375 0.484375 0.234375 1.140625l0 3.59375q0 0.390625 0.0625 0.828125q0.078125 0.421875 0.21875 0.75l0 0.109375l-1.390625 0zm-2.328125 -1.015625q0.375 0 0.703125 -0.09375q0.34375 -0.09375 0.625 -0.25q0.28125 -0.171875 0.46875 -0.375q0.203125 -0.21875 0.328125 -0.453125l0 -1.5625l-1.234375 0q-1.15625 0 -1.8125 0.34375q-0.640625 0.34375 -0.640625 1.078125q0 0.28125 0.09375 0.53125q0.109375 0.234375 0.296875 0.421875q0.1875 0.171875 0.484375 0.265625q0.296875 0.09375 0.6875 0.09375z" fill-rule="nonzero"/><path fill="#d9ead3" d="m427.27823 26.429134l112.31497 0l0 38.393703l-112.31497 0z" fill-rule="evenodd"/><path stroke="#000000" stroke-width="1.0" stroke-linejoin="round" stroke-linecap="butt" d="m427.27823 26.429134l112.31497 0l0 38.393703l-112.31497 0z" fill-rule="evenodd"/><path fill="#000000" d="m439.4501 51.704735q-0.984375 0 -1.75 -0.25q-0.765625 -0.25 -1.28125 -0.53125l0.328125 -1.5625l0.078125 0q0.15625 0.140625 0.421875 0.328125q0.265625 0.1875 0.671875 0.375q0.359375 0.1875 0.828125 0.3125q0.484375 0.125 1.015625 0.125q1.109375 0 1.734375 -0.40625q0.625 -0.40625 0.625 -1.1875q0 -0.421875 -0.328125 -0.640625q-0.3125 -0.21875 -0.921875 -0.359375q-0.296875 -0.078125 -0.734375 -0.15625q-0.421875 -0.09375 -0.859375 -0.203125q-0.90625 -0.265625 -1.34375 -0.75q-0.4375 -0.484375 -0.4375 -1.1875q0 -0.609375 0.265625 -1.140625q0.265625 -0.53125 0.78125 -0.984375q0.5 -0.421875 1.265625 -0.671875q0.78125 -0.265625 1.734375 -0.265625q0.78125 0 1.546875 0.203125q0.78125 0.1875 1.28125 0.46875l-0.3125 1.5l-0.078125 0q-0.125 -0.09375 -0.390625 -0.265625q-0.25 -0.171875 -0.640625 -0.359375q-0.328125 -0.140625 -0.78125 -0.25q-0.453125 -0.109375 -0.9375 -0.109375q-0.96875 0 -1.578125 0.40625q-0.609375 0.40625 -0.609375 1.125q0 0.390625 0.296875 0.65625q0.296875 0.25 0.90625 0.40625q0.375 0.09375 0.796875 0.171875q0.421875 0.078125 0.8125 0.171875q0.90625 0.234375 1.359375 0.71875q0.453125 0.46875 0.453125 1.1875q0 0.59375 -0.28125 1.171875q-0.28125 0.578125 -0.828125 1.0q-0.546875 0.4375 -1.34375 0.703125q-0.78125 0.25 -1.765625 0.25zm18.492188 -8.953125l-4.0625 8.734375l-1.375 0l-0.875 -6.75l-3.59375 6.75l-1.359375 0l-0.546875 -8.734375l1.5 0l0.21875 6.75l3.5625 -6.75l1.234375 0l0.84375 6.75l2.90625 -6.75l1.546875 0zm4.484375 -2.984375l-0.34375 1.53125l-1.65625 0l0.34375 -1.53125l1.65625 0zm-0.78125 2.984375l-2.015625 8.734375l-1.46875 0l2.015625 -8.734375l1.46875 0zm7.4375 0l-0.265625 1.1875l-3.03125 0l-0.9375 4.03125q-0.078125 0.296875 -0.140625 0.703125q-0.0625 0.390625 -0.0625 0.625q0 0.5625 0.28125 0.84375q0.296875 0.28125 1.078125 0.28125q0.328125 0 0.765625 -0.109375q0.4375 -0.109375 0.59375 -0.171875l0.078125 0l-0.265625 1.265625q-0.4375 0.109375 -0.9375 0.171875q-0.5 0.078125 -0.875 0.078125q-1.078125 0 -1.671875 -0.46875q-0.59375 -0.484375 -0.59375 -1.5q0 -0.25 0.03125 -0.5q0.046875 -0.25 0.109375 -0.5625l1.078125 -4.6875l-0.984375 0l0.265625 -1.1875l0.984375 0l0.59375 -2.5l1.46875 0l-0.59375 2.5l3.03125 0zm3.5390625 8.9375q-0.828125 0 -1.46875 -0.203125q-0.625 -0.203125 -1.109375 -0.625q-0.453125 -0.40625 -0.703125 -1.015625q-0.25 -0.625 -0.25 -1.4375q0 -1.234375 0.375 -2.296875q0.390625 -1.0625 1.09375 -1.859375q0.671875 -0.78125 1.671875 -1.234375q1.0 -0.46875 2.15625 -0.46875q0.765625 0 1.4375 0.21875q0.6875 0.203125 1.203125 0.5l-0.328125 1.578125l-0.078125 0q-0.15625 -0.140625 -0.390625 -0.328125q-0.234375 -0.1875 -0.5625 -0.34375q-0.3125 -0.171875 -0.703125 -0.28125q-0.390625 -0.125 -0.890625 -0.125q-1.515625 0 -2.484375 1.28125q-0.953125 1.28125 -0.953125 3.125q0 1.09375 0.5625 1.6875q0.578125 0.59375 1.625 0.59375q0.484375 0 0.96875 -0.140625q0.5 -0.140625 0.84375 -0.296875q0.390625 -0.1875 0.71875 -0.390625q0.328125 -0.203125 0.46875 -0.296875l0.09375 0l-0.3125 1.59375q-0.6875 0.3125 -1.453125 0.546875q-0.75 0.21875 -1.53125 0.21875zm13.3046875 -6.9375q0 0.1875 -0.046875 0.515625q-0.03125 0.3125 -0.09375 0.546875l-1.3125 5.671875l-1.46875 0l1.15625 -4.96875q0.09375 -0.421875 0.140625 -0.71875q0.046875 -0.3125 0.046875 -0.625q0 -0.65625 -0.328125 -0.984375q-0.3125 -0.328125 -1.15625 -0.328125q-0.59375 0 -1.3125 0.328125q-0.71875 0.328125 -1.390625 0.78125l-1.515625 6.515625l-1.46875 0l2.8125 -12.15625l1.46875 0l-1.015625 4.390625q0.828125 -0.578125 1.5625 -0.890625q0.734375 -0.3125 1.5 -0.3125q1.140625 0 1.78125 0.578125q0.640625 0.5625 0.640625 1.65625zm6.015625 0.234375l-1.890625 0l0.515625 -2.234375l1.890625 0l-0.515625 2.234375zm-1.5 6.5l-1.890625 0l0.515625 -2.234375l1.890625 0l-0.515625 2.234375zm18.328125 -5.640625q0 1.171875 -0.359375 2.25q-0.359375 1.078125 -1.015625 1.875q-0.671875 0.828125 -1.5625 1.296875q-0.890625 0.46875 -2.078125 0.46875q-1.5625 0 -2.4375 -0.890625q-0.859375 -0.890625 -0.859375 -2.453125q0 -1.171875 0.34375 -2.234375q0.359375 -1.0625 1.03125 -1.890625q0.65625 -0.796875 1.59375 -1.265625q0.9375 -0.484375 2.0625 -0.484375q1.5 0 2.390625 0.859375q0.890625 0.859375 0.890625 2.46875zm-2.390625 3.296875q0.421875 -0.625 0.640625 -1.4375q0.234375 -0.828125 0.234375 -1.75q0 -1.09375 -0.53125 -1.65625q-0.515625 -0.5625 -1.46875 -0.5625q-0.765625 0 -1.375 0.375q-0.59375 0.359375 -1.03125 0.984375q-0.421875 0.625 -0.65625 1.453125q-0.21875 0.828125 -0.21875 1.71875q0 1.078125 0.515625 1.65625q0.53125 0.578125 1.5 0.578125q0.75 0 1.359375 -0.359375q0.609375 -0.359375 1.03125 -1.0zm12.273407 -4.390625q0 0.1875 -0.046875 0.515625q-0.03125 0.3125 -0.09375 0.546875l-1.3125 5.671875l-1.46875 0l1.15625 -4.96875q0.09375 -0.421875 0.140625 -0.71875q0.046875 -0.3125 0.046875 -0.625q0 -0.65625 -0.328125 -0.984375q-0.3125 -0.328125 -1.15625 -0.328125q-0.59375 0 -1.3125 0.328125q-0.71875 0.328125 -1.390625 0.78125l-1.5155945 6.515625l-1.46875 0l2.015625 -8.734375l1.4687195 0l-0.21875 0.96875q0.828125 -0.578125 1.5625 -0.890625q0.734375 -0.3125 1.5 -0.3125q1.140625 0 1.78125 0.578125q0.640625 0.5625 0.640625 1.65625z" fill-rule="nonzero"/><path fill="#b7b7b7" d="m484.87665 99.3937l112.31494 0l0 38.3937l-112.31494 0z" fill-rule="evenodd"/><path stroke="#000000" stroke-width="1.0" stroke-linejoin="round" stroke-linecap="butt" d="m484.87665 99.3937l112.31494 0l0 38.3937l-112.31494 0z" fill-rule="evenodd"/><path fill="#000000" d="m506.7284 119.733055q0 -0.84375 0.234375 -1.5625q0.25 -0.71875 0.703125 -1.25q0.453125 -0.53125 1.109375 -0.828125q0.65625 -0.3125 1.46875 -0.3125q0.8125 0 1.46875 0.3125q0.65625 0.296875 1.109375 0.828125q0.453125 0.53125 0.703125 1.25q0.25 0.71875 0.25 1.5625l0 0.15625q0 0.828125 -0.25 1.546875q-0.25 0.71875 -0.703125 1.25q-0.453125 0.53125 -1.109375 0.828125q-0.640625 0.296875 -1.453125 0.296875q-0.828125 0 -1.484375 -0.296875q-0.65625 -0.296875 -1.109375 -0.828125q-0.453125 -0.53125 -0.703125 -1.25q-0.234375 -0.71875 -0.234375 -1.546875l0 -0.15625zm1.328125 0.15625q0 0.5625 0.125 1.09375q0.140625 0.515625 0.40625 0.90625q0.28125 0.390625 0.6875 0.625q0.421875 0.21875 0.984375 0.21875q0.53125 0 0.9375 -0.21875q0.421875 -0.234375 0.6875 -0.625q0.28125 -0.390625 0.421875 -0.90625q0.140625 -0.53125 0.140625 -1.09375l0 -0.15625q0 -0.578125 -0.140625 -1.09375q-0.140625 -0.515625 -0.421875 -0.90625q-0.265625 -0.390625 -0.6875 -0.625q-0.40625 -0.234375 -0.953125 -0.234375q-0.5625 0 -0.96875 0.234375q-0.40625 0.234375 -0.6875 0.625q-0.265625 0.390625 -0.40625 0.90625q-0.125 0.515625 -0.125 1.09375l0 0.15625zm8.045166 -7.21875l3.953125 0l0 9.859375l2.53125 0l0 1.140625l-6.484375 0l0 -1.140625l2.640625 0l0 -8.703125l-2.640625 0l0 -1.15625zm8.342102 7.0625q0 -0.859375 0.21875 -1.578125q0.21875 -0.734375 0.609375 -1.25q0.40625 -0.53125 0.984375 -0.828125q0.578125 -0.296875 1.28125 -0.296875q0.6875 0 1.203125 0.234375q0.53125 0.234375 0.90625 0.671875l0 -4.015625l1.328125 0l0 11.0l-1.21875 0l-0.0625 -0.8125q-0.375 0.46875 -0.921875 0.71875q-0.53125 0.234375 -1.25 0.234375q-0.703125 0 -1.28125 -0.296875q-0.5625 -0.296875 -0.96875 -0.828125q-0.390625 -0.53125 -0.609375 -1.25q-0.21875 -0.71875 -0.21875 -1.546875l0 -0.15625zm1.3125 0.15625q0 0.5625 0.125 1.078125q0.125 0.5 0.375 0.890625q0.25 0.375 0.640625 0.609375q0.40625 0.21875 0.953125 0.21875q0.34375 0 0.609375 -0.078125q0.265625 -0.078125 0.484375 -0.21875q0.234375 -0.15625 0.40625 -0.359375q0.171875 -0.203125 0.296875 -0.453125l0 -3.59375q-0.25 -0.46875 -0.6875 -0.765625q-0.4375 -0.3125 -1.09375 -0.3125q-0.5625 0 -0.96875 0.234375q-0.390625 0.21875 -0.640625 0.609375q-0.25 0.390625 -0.375 0.90625q-0.125 0.515625 -0.125 1.078125l0 0.15625zm16.277832 -0.15625q0 -0.859375 0.21875 -1.578125q0.21875 -0.734375 0.609375 -1.25q0.40625 -0.53125 0.984375 -0.828125q0.578125 -0.296875 1.28125 -0.296875q0.6875 0 1.203125 0.234375q0.53125 0.234375 0.90625 0.671875l0 -4.015625l1.328125 0l0 11.0l-1.21875 0l-0.0625 -0.8125q-0.375 0.46875 -0.921875 0.71875q-0.53125 0.234375 -1.25 0.234375q-0.703125 0 -1.28125 -0.296875q-0.5625 -0.296875 -0.96875 -0.828125q-0.390625 -0.53125 -0.609375 -1.25q-0.21875 -0.71875 -0.21875 -1.546875l0 -0.15625zm1.3125 0.15625q0 0.5625 0.125 1.078125q0.125 0.5 0.375 0.890625q0.25 0.375 0.640625 0.609375q0.40625 0.21875 0.953125 0.21875q0.34375 0 0.609375 -0.078125q0.265625 -0.078125 0.484375 -0.21875q0.234375 -0.15625 0.40625 -0.359375q0.171875 -0.203125 0.296875 -0.453125l0 -3.59375q-0.25 -0.46875 -0.6875 -0.765625q-0.4375 -0.3125 -1.09375 -0.3125q-0.5625 0 -0.96875 0.234375q-0.390625 0.21875 -0.640625 0.609375q-0.25 0.390625 -0.375 0.90625q-0.125 0.515625 -0.125 1.078125l0 0.15625zm12.810791 3.78125q-0.078125 -0.15625 -0.125 -0.375q-0.046875 -0.21875 -0.0625 -0.46875q-0.203125 0.203125 -0.453125 0.390625q-0.234375 0.171875 -0.53125 0.3125q-0.296875 0.125 -0.640625 0.203125q-0.34375 0.078125 -0.71875 0.078125q-0.609375 0 -1.109375 -0.171875q-0.5 -0.1875 -0.84375 -0.484375q-0.34375 -0.3125 -0.546875 -0.71875q-0.1875 -0.421875 -0.1875 -0.90625q0 -0.640625 0.25 -1.125q0.265625 -0.484375 0.734375 -0.796875q0.46875 -0.3125 1.109375 -0.46875q0.65625 -0.15625 1.46875 -0.15625l1.453125 0l0 -0.609375q0 -0.359375 -0.140625 -0.640625q-0.125 -0.28125 -0.359375 -0.46875q-0.234375 -0.203125 -0.578125 -0.296875q-0.34375 -0.109375 -0.765625 -0.109375q-0.390625 0 -0.703125 0.09375q-0.3125 0.09375 -0.53125 0.265625q-0.203125 0.15625 -0.328125 0.390625q-0.109375 0.21875 -0.109375 0.46875l-1.328125 0q0 -0.421875 0.203125 -0.828125q0.21875 -0.40625 0.609375 -0.734375q0.40625 -0.328125 0.96875 -0.53125q0.578125 -0.203125 1.296875 -0.203125q0.65625 0 1.21875 0.171875q0.5625 0.15625 0.96875 0.484375q0.421875 0.328125 0.65625 0.8125q0.234375 0.484375 0.234375 1.140625l0 3.59375q0 0.390625 0.0625 0.828125q0.078125 0.421875 0.21875 0.75l0 0.109375l-1.390625 0zm-2.328125 -1.015625q0.375 0 0.703125 -0.09375q0.34375 -0.09375 0.625 -0.25q0.28125 -0.171875 0.46875 -0.375q0.203125 -0.21875 0.328125 -0.453125l0 -1.5625l-1.234375 0q-1.15625 0 -1.8125 0.34375q-0.640625 0.34375 -0.640625 1.078125q0 0.28125 0.09375 0.53125q0.109375 0.234375 0.296875 0.421875q0.1875 0.171875 0.484375 0.265625q0.296875 0.09375 0.6875 0.09375zm9.170227 -8.609375l0 1.875l2.953125 0l0 1.03125l-2.953125 0l0 4.203125q0 0.453125 0.109375 0.75q0.125 0.296875 0.328125 0.46875q0.203125 0.171875 0.453125 0.25q0.265625 0.0625 0.5625 0.0625q0.21875 0 0.4375 -0.015625q0.234375 -0.03125 0.453125 -0.0625q0.21875 -0.046875 0.40625 -0.078125q0.1875 -0.046875 0.3125 -0.0625l0.1875 0.9375q-0.171875 0.09375 -0.40625 0.171875q-0.234375 0.078125 -0.515625 0.125q-0.28125 0.046875 -0.59375 0.078125q-0.3125 0.03125 -0.609375 0.03125q-0.515625 0 -0.96875 -0.140625q-0.4375 -0.15625 -0.78125 -0.46875q-0.328125 -0.3125 -0.515625 -0.8125q-0.1875 -0.515625 -0.1875 -1.234375l0 -4.203125l-2.03125 0l0 -1.03125l2.03125 0l0 -1.875l1.328125 0zm10.748291 9.625q-0.078125 -0.15625 -0.125 -0.375q-0.046875 -0.21875 -0.0625 -0.46875q-0.203125 0.203125 -0.453125 0.390625q-0.234375 0.171875 -0.53125 0.3125q-0.296875 0.125 -0.640625 0.203125q-0.34375 0.078125 -0.71875 0.078125q-0.609375 0 -1.109375 -0.171875q-0.5 -0.1875 -0.84375 -0.484375q-0.34375 -0.3125 -0.546875 -0.71875q-0.1875 -0.421875 -0.1875 -0.90625q0 -0.640625 0.25 -1.125q0.265625 -0.484375 0.734375 -0.796875q0.46875 -0.3125 1.109375 -0.46875q0.65625 -0.15625 1.46875 -0.15625l1.453125 0l0 -0.609375q0 -0.359375 -0.140625 -0.640625q-0.125 -0.28125 -0.359375 -0.46875q-0.234375 -0.203125 -0.578125 -0.296875q-0.34375 -0.109375 -0.765625 -0.109375q-0.390625 0 -0.703125 0.09375q-0.3125 0.09375 -0.53125 0.265625q-0.203125 0.15625 -0.328125 0.390625q-0.109375 0.21875 -0.109375 0.46875l-1.328125 0q0 -0.421875 0.203125 -0.828125q0.21875 -0.40625 0.609375 -0.734375q0.40625 -0.328125 0.96875 -0.53125q0.578125 -0.203125 1.296875 -0.203125q0.65625 0 1.21875 0.171875q0.5625 0.15625 0.96875 0.484375q0.421875 0.328125 0.65625 0.8125q0.234375 0.484375 0.234375 1.140625l0 3.59375q0 0.390625 0.0625 0.828125q0.078125 0.421875 0.21875 0.75l0 0.109375l-1.390625 0zm-2.328125 -1.015625q0.375 0 0.703125 -0.09375q0.34375 -0.09375 0.625 -0.25q0.28125 -0.171875 0.46875 -0.375q0.203125 -0.21875 0.328125 -0.453125l0 -1.5625l-1.234375 0q-1.15625 0 -1.8125 0.34375q-0.640625 0.34375 -0.640625 1.078125q0 0.28125 0.09375 0.53125q0.109375 0.234375 0.296875 0.421875q0.1875 0.171875 0.484375 0.265625q0.296875 0.09375 0.6875 0.09375z" fill-rule="nonzero"/><path fill="#f3f3f3" d="m484.87665 137.7874l112.31494 0l0 38.393707l-112.31494 0z" fill-rule="evenodd"/><path stroke="#000000" stroke-width="1.0" stroke-linejoin="round" stroke-linecap="butt" d="m484.87665 137.7874l112.31494 0l0 38.393707l-112.31494 0z" fill-rule="evenodd"/><path fill="#000000" d="m505.8308 152.43925l0 1.875l2.953125 0l0 1.03125l-2.953125 0l0 4.203125q0 0.453125 0.109375 0.75q0.125 0.296875 0.328125 0.46875q0.203125 0.171875 0.453125 0.25q0.265625 0.0625 0.5625 0.0625q0.21875 0 0.4375 -0.015625q0.234375 -0.03125 0.453125 -0.0625q0.21875 -0.046875 0.40625 -0.078125q0.1875 -0.046875 0.3125 -0.0625l0.1875 0.9375q-0.171875 0.09375 -0.40625 0.171875q-0.234375 0.078125 -0.515625 0.125q-0.28125 0.046875 -0.59375 0.078125q-0.3125 0.03125 -0.609375 0.03125q-0.515625 0 -0.96875 -0.140625q-0.4375 -0.15625 -0.78125 -0.46875q-0.328125 -0.3125 -0.515625 -0.8125q-0.1875 -0.515625 -0.1875 -1.234375l0 -4.203125l-2.03125 0l0 -1.03125l2.03125 0l0 -1.875l1.328125 0zm9.092041 9.765625q-0.828125 0 -1.515625 -0.28125q-0.671875 -0.28125 -1.15625 -0.78125q-0.484375 -0.5 -0.765625 -1.1875q-0.265625 -0.6875 -0.265625 -1.484375l0 -0.3125q0 -0.9375 0.296875 -1.671875q0.296875 -0.734375 0.796875 -1.25q0.5 -0.515625 1.125 -0.78125q0.640625 -0.28125 1.3125 -0.28125q0.828125 0 1.453125 0.296875q0.625 0.28125 1.03125 0.796875q0.421875 0.515625 0.625 1.21875q0.21875 0.6875 0.21875 1.484375l0 0.59375l-5.53125 0q0.015625 0.53125 0.1875 1.0q0.1875 0.46875 0.5 0.8125q0.328125 0.34375 0.765625 0.546875q0.453125 0.203125 0.984375 0.203125q0.71875 0 1.265625 -0.28125q0.546875 -0.296875 0.90625 -0.765625l0.8125 0.625q-0.1875 0.296875 -0.484375 0.578125q-0.28125 0.265625 -0.671875 0.46875q-0.375 0.203125 -0.859375 0.328125q-0.46875 0.125 -1.03125 0.125zm-0.171875 -6.9375q-0.40625 0 -0.765625 0.15625q-0.359375 0.140625 -0.640625 0.421875q-0.28125 0.28125 -0.484375 0.703125q-0.203125 0.40625 -0.28125 0.9375l4.171875 0l0 -0.109375q-0.03125 -0.375 -0.15625 -0.75q-0.125 -0.390625 -0.375 -0.6875q-0.234375 -0.296875 -0.609375 -0.484375q-0.359375 -0.1875 -0.859375 -0.1875zm6.154541 -0.953125l0.03125 0.734375q0.234375 -0.40625 0.609375 -0.625q0.390625 -0.234375 0.9375 -0.25q1.0625 0 1.421875 0.828125q0.234375 -0.359375 0.609375 -0.578125q0.375 -0.234375 0.90625 -0.25q0.859375 0 1.3125 0.53125q0.453125 0.515625 0.453125 1.578125l0 5.78125l-1.25 0l0 -5.796875q0 -0.96875 -0.90625 -0.96875q-0.234375 0 -0.40625 0.0625q-0.171875 0.0625 -0.28125 0.1875q-0.109375 0.109375 -0.1875 0.25q-0.0625 0.140625 -0.078125 0.296875l0 5.96875l-1.265625 0l0 -5.796875q0 -0.46875 -0.203125 -0.71875q-0.203125 -0.25 -0.65625 -0.25q-0.421875 0 -0.65625 0.171875q-0.21875 0.15625 -0.328125 0.4375l0 6.15625l-1.25 0l0 -7.75l1.1875 0zm14.717102 3.96875q0 0.828125 -0.203125 1.546875q-0.203125 0.71875 -0.59375 1.25q-0.375 0.53125 -0.953125 0.828125q-0.5625 0.296875 -1.296875 0.296875q-0.703125 0 -1.25 -0.21875q-0.53125 -0.234375 -0.921875 -0.671875l0 3.734375l-1.328125 0l0 -10.734375l1.21875 0l0.0625 0.84375q0.375 -0.46875 0.921875 -0.71875q0.5625 -0.265625 1.28125 -0.265625q0.734375 0 1.3125 0.296875q0.578125 0.296875 0.953125 0.828125q0.390625 0.515625 0.59375 1.25q0.203125 0.71875 0.203125 1.578125l0 0.15625zm-1.328125 -0.15625q0 -0.5625 -0.125 -1.078125q-0.125 -0.515625 -0.390625 -0.90625q-0.25 -0.390625 -0.65625 -0.609375q-0.40625 -0.234375 -0.953125 -0.234375q-0.640625 0 -1.078125 0.296875q-0.4375 0.296875 -0.6875 0.765625l0 3.734375q0.25 0.453125 0.671875 0.75q0.4375 0.28125 1.109375 0.28125q0.546875 0 0.9375 -0.234375q0.40625 -0.234375 0.65625 -0.625q0.265625 -0.390625 0.390625 -0.90625q0.125 -0.515625 0.125 -1.078125l0 -0.15625zm12.137207 0q0 -0.859375 0.21875 -1.578125q0.21875 -0.734375 0.609375 -1.25q0.40625 -0.53125 0.984375 -0.828125q0.578125 -0.296875 1.28125 -0.296875q0.6875 0 1.203125 0.234375q0.53125 0.234375 0.90625 0.671875l0 -4.015625l1.328125 0l0 11.0l-1.21875 0l-0.0625 -0.8125q-0.375 0.46875 -0.921875 0.71875q-0.53125 0.234375 -1.25 0.234375q-0.703125 0 -1.28125 -0.296875q-0.5625 -0.296875 -0.96875 -0.828125q-0.390625 -0.53125 -0.609375 -1.25q-0.21875 -0.71875 -0.21875 -1.546875l0 -0.15625zm1.3125 0.15625q0 0.5625 0.125 1.078125q0.125 0.5 0.375 0.890625q0.25 0.375 0.640625 0.609375q0.40625 0.21875 0.953125 0.21875q0.34375 0 0.609375 -0.078125q0.265625 -0.078125 0.484375 -0.21875q0.234375 -0.15625 0.40625 -0.359375q0.171875 -0.203125 0.296875 -0.453125l0 -3.59375q-0.25 -0.46875 -0.6875 -0.765625q-0.4375 -0.3125 -1.09375 -0.3125q-0.5625 0 -0.96875 0.234375q-0.390625 0.21875 -0.640625 0.609375q-0.25 0.390625 -0.375 0.90625q-0.125 0.515625 -0.125 1.078125l0 0.15625zm12.810791 3.78125q-0.078125 -0.15625 -0.125 -0.375q-0.046875 -0.21875 -0.0625 -0.46875q-0.203125 0.203125 -0.453125 0.390625q-0.234375 0.171875 -0.53125 0.3125q-0.296875 0.125 -0.640625 0.203125q-0.34375 0.078125 -0.71875 0.078125q-0.609375 0 -1.109375 -0.171875q-0.5 -0.1875 -0.84375 -0.484375q-0.34375 -0.3125 -0.546875 -0.71875q-0.1875 -0.421875 -0.1875 -0.90625q0 -0.640625 0.25 -1.125q0.265625 -0.484375 0.734375 -0.796875q0.46875 -0.3125 1.109375 -0.46875q0.65625 -0.15625 1.46875 -0.15625l1.453125 0l0 -0.609375q0 -0.359375 -0.140625 -0.640625q-0.125 -0.28125 -0.359375 -0.46875q-0.234375 -0.203125 -0.578125 -0.296875q-0.34375 -0.109375 -0.765625 -0.109375q-0.390625 0 -0.703125 0.09375q-0.3125 0.09375 -0.53125 0.265625q-0.203125 0.15625 -0.328125 0.390625q-0.109375 0.21875 -0.109375 0.46875l-1.328125 0q0 -0.421875 0.203125 -0.828125q0.21875 -0.40625 0.609375 -0.734375q0.40625 -0.328125 0.96875 -0.53125q0.578125 -0.203125 1.296875 -0.203125q0.65625 0 1.21875 0.171875q0.5625 0.15625 0.96875 0.484375q0.421875 0.328125 0.65625 0.8125q0.234375 0.484375 0.234375 1.140625l0 3.59375q0 0.390625 0.0625 0.828125q0.078125 0.421875 0.21875 0.75l0 0.109375l-1.390625 0zm-2.328125 -1.015625q0.375 0 0.703125 -0.09375q0.34375 -0.09375 0.625 -0.25q0.28125 -0.171875 0.46875 -0.375q0.203125 -0.21875 0.328125 -0.453125l0 -1.5625l-1.234375 0q-1.15625 0 -1.8125 0.34375q-0.640625 0.34375 -0.640625 1.078125q0 0.28125 0.09375 0.53125q0.109375 0.234375 0.296875 0.421875q0.1875 0.171875 0.484375 0.265625q0.296875 0.09375 0.6875 0.09375zm9.170227 -8.609375l0 1.875l2.953125 0l0 1.03125l-2.953125 0l0 4.203125q0 0.453125 0.109375 0.75q0.125 0.296875 0.328125 0.46875q0.203125 0.171875 0.453125 0.25q0.265625 0.0625 0.5625 0.0625q0.21875 0 0.4375 -0.015625q0.234375 -0.03125 0.453125 -0.0625q0.21875 -0.046875 0.40625 -0.078125q0.1875 -0.046875 0.3125 -0.0625l0.1875 0.9375q-0.171875 0.09375 -0.40625 0.171875q-0.234375 0.078125 -0.515625 0.125q-0.28125 0.046875 -0.59375 0.078125q-0.3125 0.03125 -0.609375 0.03125q-0.515625 0 -0.96875 -0.140625q-0.4375 -0.15625 -0.78125 -0.46875q-0.328125 -0.3125 -0.515625 -0.8125q-0.1875 -0.515625 -0.1875 -1.234375l0 -4.203125l-2.03125 0l0 -1.03125l2.03125 0l0 -1.875l1.328125 0zm10.748291 9.625q-0.078125 -0.15625 -0.125 -0.375q-0.046875 -0.21875 -0.0625 -0.46875q-0.203125 0.203125 -0.453125 0.390625q-0.234375 0.171875 -0.53125 0.3125q-0.296875 0.125 -0.640625 0.203125q-0.34375 0.078125 -0.71875 0.078125q-0.609375 0 -1.109375 -0.171875q-0.5 -0.1875 -0.84375 -0.484375q-0.34375 -0.3125 -0.546875 -0.71875q-0.1875 -0.421875 -0.1875 -0.90625q0 -0.640625 0.25 -1.125q0.265625 -0.484375 0.734375 -0.796875q0.46875 -0.3125 1.109375 -0.46875q0.65625 -0.15625 1.46875 -0.15625l1.453125 0l0 -0.609375q0 -0.359375 -0.140625 -0.640625q-0.125 -0.28125 -0.359375 -0.46875q-0.234375 -0.203125 -0.578125 -0.296875q-0.34375 -0.109375 -0.765625 -0.109375q-0.390625 0 -0.703125 0.09375q-0.3125 0.09375 -0.53125 0.265625q-0.203125 0.15625 -0.328125 0.390625q-0.109375 0.21875 -0.109375 0.46875l-1.328125 0q0 -0.421875 0.203125 -0.828125q0.21875 -0.40625 0.609375 -0.734375q0.40625 -0.328125 0.96875 -0.53125q0.578125 -0.203125 1.296875 -0.203125q0.65625 0 1.21875 0.171875q0.5625 0.15625 0.96875 0.484375q0.421875 0.328125 0.65625 0.8125q0.234375 0.484375 0.234375 1.140625l0 3.59375q0 0.390625 0.0625 0.828125q0.078125 0.421875 0.21875 0.75l0 0.109375l-1.390625 0zm-2.328125 -1.015625q0.375 0 0.703125 -0.09375q0.34375 -0.09375 0.625 -0.25q0.28125 -0.171875 0.46875 -0.375q0.203125 -0.21875 0.328125 -0.453125l0 -1.5625l-1.234375 0q-1.15625 0 -1.8125 0.34375q-0.640625 0.34375 -0.640625 1.078125q0 0.28125 0.09375 0.53125q0.109375 0.234375 0.296875 0.421875q0.1875 0.171875 0.484375 0.265625q0.296875 0.09375 0.6875 0.09375z" fill-rule="nonzero"/><path fill="#d9ead3" d="m638.52234 26.429134l112.31494 0l0 38.393703l-112.31494 0z" fill-rule="evenodd"/><path stroke="#000000" stroke-width="1.0" stroke-linejoin="round" stroke-linecap="butt" d="m638.52234 26.429134l112.31494 0l0 38.393703l-112.31494 0z" fill-rule="evenodd"/><path fill="#000000" d="m650.6942 51.704735q-0.984375 0 -1.75 -0.25q-0.765625 -0.25 -1.28125 -0.53125l0.328125 -1.5625l0.078125 0q0.15625 0.140625 0.421875 0.328125q0.265625 0.1875 0.671875 0.375q0.359375 0.1875 0.828125 0.3125q0.484375 0.125 1.015625 0.125q1.109375 0 1.734375 -0.40625q0.625 -0.40625 0.625 -1.1875q0 -0.421875 -0.328125 -0.640625q-0.3125 -0.21875 -0.921875 -0.359375q-0.296875 -0.078125 -0.734375 -0.15625q-0.421875 -0.09375 -0.859375 -0.203125q-0.90625 -0.265625 -1.34375 -0.75q-0.4375 -0.484375 -0.4375 -1.1875q0 -0.609375 0.265625 -1.140625q0.265625 -0.53125 0.78125 -0.984375q0.5 -0.421875 1.265625 -0.671875q0.78125 -0.265625 1.734375 -0.265625q0.78125 0 1.546875 0.203125q0.78125 0.1875 1.28125 0.46875l-0.3125 1.5l-0.078125 0q-0.125 -0.09375 -0.390625 -0.265625q-0.25 -0.171875 -0.640625 -0.359375q-0.328125 -0.140625 -0.78125 -0.25q-0.453125 -0.109375 -0.9375 -0.109375q-0.96875 0 -1.578125 0.40625q-0.609375 0.40625 -0.609375 1.125q0 0.390625 0.296875 0.65625q0.296875 0.25 0.90625 0.40625q0.375 0.09375 0.796875 0.171875q0.421875 0.078125 0.8125 0.171875q0.90625 0.234375 1.359375 0.71875q0.453125 0.46875 0.453125 1.1875q0 0.59375 -0.28125 1.171875q-0.28125 0.578125 -0.828125 1.0q-0.546875 0.4375 -1.34375 0.703125q-0.78125 0.25 -1.765625 0.25zm18.492188 -8.953125l-4.0625 8.734375l-1.375 0l-0.875 -6.75l-3.59375 6.75l-1.359375 0l-0.546875 -8.734375l1.5 0l0.21875 6.75l3.5625 -6.75l1.234375 0l0.84375 6.75l2.90625 -6.75l1.546875 0zm4.484375 -2.984375l-0.34375 1.53125l-1.65625 0l0.34375 -1.53125l1.65625 0zm-0.78125 2.984375l-2.015625 8.734375l-1.46875 0l2.015625 -8.734375l1.46875 0zm7.4375 0l-0.265625 1.1875l-3.03125 0l-0.9375 4.03125q-0.078125 0.296875 -0.140625 0.703125q-0.0625 0.390625 -0.0625 0.625q0 0.5625 0.28125 0.84375q0.296875 0.28125 1.078125 0.28125q0.328125 0 0.765625 -0.109375q0.4375 -0.109375 0.59375 -0.171875l0.078125 0l-0.265625 1.265625q-0.4375 0.109375 -0.9375 0.171875q-0.5 0.078125 -0.875 0.078125q-1.078125 0 -1.671875 -0.46875q-0.59375 -0.484375 -0.59375 -1.5q0 -0.25 0.03125 -0.5q0.046875 -0.25 0.109375 -0.5625l1.078125 -4.6875l-0.984375 0l0.265625 -1.1875l0.984375 0l0.59375 -2.5l1.46875 0l-0.59375 2.5l3.03125 0zm3.5390625 8.9375q-0.828125 0 -1.46875 -0.203125q-0.625 -0.203125 -1.109375 -0.625q-0.453125 -0.40625 -0.703125 -1.015625q-0.25 -0.625 -0.25 -1.4375q0 -1.234375 0.375 -2.296875q0.390625 -1.0625 1.09375 -1.859375q0.671875 -0.78125 1.671875 -1.234375q1.0 -0.46875 2.15625 -0.46875q0.765625 0 1.4375 0.21875q0.6875 0.203125 1.203125 0.5l-0.328125 1.578125l-0.078125 0q-0.15625 -0.140625 -0.390625 -0.328125q-0.234375 -0.1875 -0.5625 -0.34375q-0.3125 -0.171875 -0.703125 -0.28125q-0.390625 -0.125 -0.890625 -0.125q-1.515625 0 -2.484375 1.28125q-0.953125 1.28125 -0.953125 3.125q0 1.09375 0.5625 1.6875q0.578125 0.59375 1.625 0.59375q0.484375 0 0.96875 -0.140625q0.5 -0.140625 0.84375 -0.296875q0.390625 -0.1875 0.71875 -0.390625q0.328125 -0.203125 0.46875 -0.296875l0.09375 0l-0.3125 1.59375q-0.6875 0.3125 -1.453125 0.546875q-0.75 0.21875 -1.53125 0.21875zm13.3046875 -6.9375q0 0.1875 -0.046875 0.515625q-0.03125 0.3125 -0.09375 0.546875l-1.3125 5.671875l-1.46875 0l1.15625 -4.96875q0.09375 -0.421875 0.140625 -0.71875q0.046875 -0.3125 0.046875 -0.625q0 -0.65625 -0.328125 -0.984375q-0.3125 -0.328125 -1.15625 -0.328125q-0.59375 0 -1.3125 0.328125q-0.71875 0.328125 -1.390625 0.78125l-1.515625 6.515625l-1.46875 0l2.8125 -12.15625l1.46875 0l-1.015625 4.390625q0.828125 -0.578125 1.5625 -0.890625q0.734375 -0.3125 1.5 -0.3125q1.140625 0 1.78125 0.578125q0.640625 0.5625 0.640625 1.65625zm6.015625 0.234375l-1.890625 0l0.515625 -2.234375l1.890625 0l-0.515625 2.234375zm-1.5 6.5l-1.890625 0l0.515625 -2.234375l1.890625 0l-0.515625 2.234375zm18.328125 -5.640625q0 1.171875 -0.359375 2.25q-0.359375 1.078125 -1.015625 1.875q-0.671875 0.828125 -1.5625 1.296875q-0.890625 0.46875 -2.078125 0.46875q-1.5625 0 -2.4375 -0.890625q-0.859375 -0.890625 -0.859375 -2.453125q0 -1.171875 0.34375 -2.234375q0.359375 -1.0625 1.03125 -1.890625q0.65625 -0.796875 1.59375 -1.265625q0.9375 -0.484375 2.0625 -0.484375q1.5 0 2.390625 0.859375q0.890625 0.859375 0.890625 2.46875zm-2.390625 3.296875q0.421875 -0.625 0.640625 -1.4375q0.234375 -0.828125 0.234375 -1.75q0 -1.09375 -0.53125 -1.65625q-0.515625 -0.5625 -1.46875 -0.5625q-0.765625 0 -1.375 0.375q-0.59375 0.359375 -1.03125 0.984375q-0.421875 0.625 -0.65625 1.453125q-0.21875 0.828125 -0.21875 1.71875q0 1.078125 0.515625 1.65625q0.53125 0.578125 1.5 0.578125q0.75 0 1.359375 -0.359375q0.609375 -0.359375 1.03125 -1.0zm12.2734375 -4.390625q0 0.1875 -0.046875 0.515625q-0.03125 0.3125 -0.09375 0.546875l-1.3125 5.671875l-1.46875 0l1.15625 -4.96875q0.09375 -0.421875 0.140625 -0.71875q0.046875 -0.3125 0.046875 -0.625q0 -0.65625 -0.328125 -0.984375q-0.3125 -0.328125 -1.15625 -0.328125q-0.59375 0 -1.3125 0.328125q-0.71875 0.328125 -1.390625 0.78125l-1.515625 6.515625l-1.46875 0l2.015625 -8.734375l1.46875 0l-0.21875 0.96875q0.828125 -0.578125 1.5625 -0.890625q0.734375 -0.3125 1.5 -0.3125q1.140625 0 1.78125 0.578125q0.640625 0.5625 0.640625 1.65625z" fill-rule="nonzero"/><path fill="#b7b7b7" d="m696.1207 99.3937l112.31494 0l0 38.3937l-112.31494 0z" fill-rule="evenodd"/><path stroke="#000000" stroke-width="1.0" stroke-linejoin="round" stroke-linecap="butt" d="m696.1207 99.3937l112.31494 0l0 38.3937l-112.31494 0z" fill-rule="evenodd"/><path fill="#000000" d="m717.9725 119.733055q0 -0.84375 0.234375 -1.5625q0.25 -0.71875 0.703125 -1.25q0.453125 -0.53125 1.109375 -0.828125q0.65625 -0.3125 1.46875 -0.3125q0.8125 0 1.46875 0.3125q0.65625 0.296875 1.109375 0.828125q0.453125 0.53125 0.703125 1.25q0.25 0.71875 0.25 1.5625l0 0.15625q0 0.828125 -0.25 1.546875q-0.25 0.71875 -0.703125 1.25q-0.453125 0.53125 -1.109375 0.828125q-0.640625 0.296875 -1.453125 0.296875q-0.828125 0 -1.484375 -0.296875q-0.65625 -0.296875 -1.109375 -0.828125q-0.453125 -0.53125 -0.703125 -1.25q-0.234375 -0.71875 -0.234375 -1.546875l0 -0.15625zm1.328125 0.15625q0 0.5625 0.125 1.09375q0.140625 0.515625 0.40625 0.90625q0.28125 0.390625 0.6875 0.625q0.421875 0.21875 0.984375 0.21875q0.53125 0 0.9375 -0.21875q0.421875 -0.234375 0.6875 -0.625q0.28125 -0.390625 0.421875 -0.90625q0.140625 -0.53125 0.140625 -1.09375l0 -0.15625q0 -0.578125 -0.140625 -1.09375q-0.140625 -0.515625 -0.421875 -0.90625q-0.265625 -0.390625 -0.6875 -0.625q-0.40625 -0.234375 -0.953125 -0.234375q-0.5625 0 -0.96875 0.234375q-0.40625 0.234375 -0.6875 0.625q-0.265625 0.390625 -0.40625 0.90625q-0.125 0.515625 -0.125 1.09375l0 0.15625zm8.045227 -7.21875l3.953125 0l0 9.859375l2.53125 0l0 1.140625l-6.484375 0l0 -1.140625l2.640625 0l0 -8.703125l-2.640625 0l0 -1.15625zm8.342041 7.0625q0 -0.859375 0.21875 -1.578125q0.21875 -0.734375 0.609375 -1.25q0.40625 -0.53125 0.984375 -0.828125q0.578125 -0.296875 1.28125 -0.296875q0.6875 0 1.203125 0.234375q0.53125 0.234375 0.90625 0.671875l0 -4.015625l1.328125 0l0 11.0l-1.21875 0l-0.0625 -0.8125q-0.375 0.46875 -0.921875 0.71875q-0.53125 0.234375 -1.25 0.234375q-0.703125 0 -1.28125 -0.296875q-0.5625 -0.296875 -0.96875 -0.828125q-0.390625 -0.53125 -0.609375 -1.25q-0.21875 -0.71875 -0.21875 -1.546875l0 -0.15625zm1.3125 0.15625q0 0.5625 0.125 1.078125q0.125 0.5 0.375 0.890625q0.25 0.375 0.640625 0.609375q0.40625 0.21875 0.953125 0.21875q0.34375 0 0.609375 -0.078125q0.265625 -0.078125 0.484375 -0.21875q0.234375 -0.15625 0.40625 -0.359375q0.171875 -0.203125 0.296875 -0.453125l0 -3.59375q-0.25 -0.46875 -0.6875 -0.765625q-0.4375 -0.3125 -1.09375 -0.3125q-0.5625 0 -0.96875 0.234375q-0.390625 0.21875 -0.640625 0.609375q-0.25 0.390625 -0.375 0.90625q-0.125 0.515625 -0.125 1.078125l0 0.15625zm16.277832 -0.15625q0 -0.859375 0.21875 -1.578125q0.21875 -0.734375 0.609375 -1.25q0.40625 -0.53125 0.984375 -0.828125q0.578125 -0.296875 1.28125 -0.296875q0.6875 0 1.203125 0.234375q0.53125 0.234375 0.90625 0.671875l0 -4.015625l1.328125 0l0 11.0l-1.21875 0l-0.0625 -0.8125q-0.375 0.46875 -0.921875 0.71875q-0.53125 0.234375 -1.25 0.234375q-0.703125 0 -1.28125 -0.296875q-0.5625 -0.296875 -0.96875 -0.828125q-0.390625 -0.53125 -0.609375 -1.25q-0.21875 -0.71875 -0.21875 -1.546875l0 -0.15625zm1.3125 0.15625q0 0.5625 0.125 1.078125q0.125 0.5 0.375 0.890625q0.25 0.375 0.640625 0.609375q0.40625 0.21875 0.953125 0.21875q0.34375 0 0.609375 -0.078125q0.265625 -0.078125 0.484375 -0.21875q0.234375 -0.15625 0.40625 -0.359375q0.171875 -0.203125 0.296875 -0.453125l0 -3.59375q-0.25 -0.46875 -0.6875 -0.765625q-0.4375 -0.3125 -1.09375 -0.3125q-0.5625 0 -0.96875 0.234375q-0.390625 0.21875 -0.640625 0.609375q-0.25 0.390625 -0.375 0.90625q-0.125 0.515625 -0.125 1.078125l0 0.15625zm12.810852 3.78125q-0.078125 -0.15625 -0.125 -0.375q-0.046875 -0.21875 -0.0625 -0.46875q-0.203125 0.203125 -0.453125 0.390625q-0.234375 0.171875 -0.53125 0.3125q-0.296875 0.125 -0.640625 0.203125q-0.34375 0.078125 -0.71875 0.078125q-0.609375 0 -1.109375 -0.171875q-0.5 -0.1875 -0.84375 -0.484375q-0.34375 -0.3125 -0.546875 -0.71875q-0.1875 -0.421875 -0.1875 -0.90625q0 -0.640625 0.25 -1.125q0.265625 -0.484375 0.734375 -0.796875q0.46875 -0.3125 1.109375 -0.46875q0.65625 -0.15625 1.46875 -0.15625l1.453125 0l0 -0.609375q0 -0.359375 -0.140625 -0.640625q-0.125 -0.28125 -0.359375 -0.46875q-0.234375 -0.203125 -0.578125 -0.296875q-0.34375 -0.109375 -0.765625 -0.109375q-0.390625 0 -0.703125 0.09375q-0.3125 0.09375 -0.53125 0.265625q-0.203125 0.15625 -0.328125 0.390625q-0.109375 0.21875 -0.109375 0.46875l-1.328125 0q0 -0.421875 0.203125 -0.828125q0.21875 -0.40625 0.609375 -0.734375q0.40625 -0.328125 0.96875 -0.53125q0.578125 -0.203125 1.296875 -0.203125q0.65625 0 1.21875 0.171875q0.5625 0.15625 0.96875 0.484375q0.421875 0.328125 0.65625 0.8125q0.234375 0.484375 0.234375 1.140625l0 3.59375q0 0.390625 0.0625 0.828125q0.078125 0.421875 0.21875 0.75l0 0.109375l-1.390625 0zm-2.328125 -1.015625q0.375 0 0.703125 -0.09375q0.34375 -0.09375 0.625 -0.25q0.28125 -0.171875 0.46875 -0.375q0.203125 -0.21875 0.328125 -0.453125l0 -1.5625l-1.234375 0q-1.15625 0 -1.8125 0.34375q-0.640625 0.34375 -0.640625 1.078125q0 0.28125 0.09375 0.53125q0.109375 0.234375 0.296875 0.421875q0.1875 0.171875 0.484375 0.265625q0.296875 0.09375 0.6875 0.09375zm9.170166 -8.609375l0 1.875l2.953125 0l0 1.03125l-2.953125 0l0 4.203125q0 0.453125 0.109375 0.75q0.125 0.296875 0.328125 0.46875q0.203125 0.171875 0.453125 0.25q0.265625 0.0625 0.5625 0.0625q0.21875 0 0.4375 -0.015625q0.234375 -0.03125 0.453125 -0.0625q0.21875 -0.046875 0.40625 -0.078125q0.1875 -0.046875 0.3125 -0.0625l0.1875 0.9375q-0.171875 0.09375 -0.40625 0.171875q-0.234375 0.078125 -0.515625 0.125q-0.28125 0.046875 -0.59375 0.078125q-0.3125 0.03125 -0.609375 0.03125q-0.515625 0 -0.96875 -0.140625q-0.4375 -0.15625 -0.78125 -0.46875q-0.328125 -0.3125 -0.515625 -0.8125q-0.1875 -0.515625 -0.1875 -1.234375l0 -4.203125l-2.03125 0l0 -1.03125l2.03125 0l0 -1.875l1.328125 0zm10.748291 9.625q-0.078125 -0.15625 -0.125 -0.375q-0.046875 -0.21875 -0.0625 -0.46875q-0.203125 0.203125 -0.453125 0.390625q-0.234375 0.171875 -0.53125 0.3125q-0.296875 0.125 -0.640625 0.203125q-0.34375 0.078125 -0.71875 0.078125q-0.609375 0 -1.109375 -0.171875q-0.5 -0.1875 -0.84375 -0.484375q-0.34375 -0.3125 -0.546875 -0.71875q-0.1875 -0.421875 -0.1875 -0.90625q0 -0.640625 0.25 -1.125q0.265625 -0.484375 0.734375 -0.796875q0.46875 -0.3125 1.109375 -0.46875q0.65625 -0.15625 1.46875 -0.15625l1.453125 0l0 -0.609375q0 -0.359375 -0.140625 -0.640625q-0.125 -0.28125 -0.359375 -0.46875q-0.234375 -0.203125 -0.578125 -0.296875q-0.34375 -0.109375 -0.765625 -0.109375q-0.390625 0 -0.703125 0.09375q-0.3125 0.09375 -0.53125 0.265625q-0.203125 0.15625 -0.328125 0.390625q-0.109375 0.21875 -0.109375 0.46875l-1.328125 0q0 -0.421875 0.203125 -0.828125q0.21875 -0.40625 0.609375 -0.734375q0.40625 -0.328125 0.96875 -0.53125q0.578125 -0.203125 1.296875 -0.203125q0.65625 0 1.21875 0.171875q0.5625 0.15625 0.96875 0.484375q0.421875 0.328125 0.65625 0.8125q0.234375 0.484375 0.234375 1.140625l0 3.59375q0 0.390625 0.0625 0.828125q0.078125 0.421875 0.21875 0.75l0 0.109375l-1.390625 0zm-2.328125 -1.015625q0.375 0 0.703125 -0.09375q0.34375 -0.09375 0.625 -0.25q0.28125 -0.171875 0.46875 -0.375q0.203125 -0.21875 0.328125 -0.453125l0 -1.5625l-1.234375 0q-1.15625 0 -1.8125 0.34375q-0.640625 0.34375 -0.640625 1.078125q0 0.28125 0.09375 0.53125q0.109375 0.234375 0.296875 0.421875q0.1875 0.171875 0.484375 0.265625q0.296875 0.09375 0.6875 0.09375z" fill-rule="nonzero"/><path fill="#f3f3f3" d="m696.1207 137.7874l112.31494 0l0 38.393707l-112.31494 0z" fill-rule="evenodd"/><path stroke="#000000" stroke-width="1.0" stroke-linejoin="round" stroke-linecap="butt" d="m696.1207 137.7874l112.31494 0l0 38.393707l-112.31494 0z" fill-rule="evenodd"/><path fill="#000000" d="m719.535 154.31425l0.09375 1.15625q0.421875 -0.609375 1.03125 -0.9375q0.609375 -0.34375 1.375 -0.359375q0.609375 0 1.109375 0.171875q0.5 0.171875 0.84375 0.546875q0.359375 0.359375 0.546875 0.921875q0.1875 0.5625 0.1875 1.328125l0 4.921875l-1.328125 0l0 -4.890625q0 -0.515625 -0.125 -0.875q-0.109375 -0.359375 -0.328125 -0.578125q-0.21875 -0.21875 -0.546875 -0.3125q-0.328125 -0.109375 -0.75 -0.109375q-0.671875 0 -1.171875 0.34375q-0.5 0.328125 -0.8125 0.875l0 5.546875l-1.3125 0l0 -7.75l1.1875 0zm11.029602 7.890625q-0.828125 0 -1.515625 -0.28125q-0.671875 -0.28125 -1.15625 -0.78125q-0.484375 -0.5 -0.765625 -1.1875q-0.265625 -0.6875 -0.265625 -1.484375l0 -0.3125q0 -0.9375 0.296875 -1.671875q0.296875 -0.734375 0.796875 -1.25q0.5 -0.515625 1.125 -0.78125q0.640625 -0.28125 1.3125 -0.28125q0.828125 0 1.453125 0.296875q0.625 0.28125 1.03125 0.796875q0.421875 0.515625 0.625 1.21875q0.21875 0.6875 0.21875 1.484375l0 0.59375l-5.53125 0q0.015625 0.53125 0.1875 1.0q0.1875 0.46875 0.5 0.8125q0.328125 0.34375 0.765625 0.546875q0.453125 0.203125 0.984375 0.203125q0.71875 0 1.265625 -0.28125q0.546875 -0.296875 0.90625 -0.765625l0.8125 0.625q-0.1875 0.296875 -0.484375 0.578125q-0.28125 0.265625 -0.671875 0.46875q-0.375 0.203125 -0.859375 0.328125q-0.46875 0.125 -1.03125 0.125zm-0.171875 -6.9375q-0.40625 0 -0.765625 0.15625q-0.359375 0.140625 -0.640625 0.421875q-0.28125 0.28125 -0.484375 0.703125q-0.203125 0.40625 -0.28125 0.9375l4.171875 0l0 -0.109375q-0.03125 -0.375 -0.15625 -0.75q-0.125 -0.390625 -0.375 -0.6875q-0.234375 -0.296875 -0.609375 -0.484375q-0.359375 -0.1875 -0.859375 -0.1875zm6.717041 3.984375l0.15625 1.109375l0.1875 -1.109375l1.234375 -4.9375l0.859375 0l1.234375 4.9375l0.203125 1.21875l0.1875 -1.21875l0.859375 -4.9375l1.171875 0l-1.640625 7.75l-1.046875 0l-1.203125 -4.75l-0.203125 -1.203125l-0.1875 1.203125l-1.203125 4.75l-1.046875 0l-1.640625 -7.75l1.171875 0l0.90625 4.9375zm16.168457 -1.125q0 -0.859375 0.21875 -1.578125q0.21875 -0.734375 0.609375 -1.25q0.40625 -0.53125 0.984375 -0.828125q0.578125 -0.296875 1.28125 -0.296875q0.6875 0 1.203125 0.234375q0.53125 0.234375 0.90625 0.671875l0 -4.015625l1.328125 0l0 11.0l-1.21875 0l-0.0625 -0.8125q-0.375 0.46875 -0.921875 0.71875q-0.53125 0.234375 -1.25 0.234375q-0.703125 0 -1.28125 -0.296875q-0.5625 -0.296875 -0.96875 -0.828125q-0.390625 -0.53125 -0.609375 -1.25q-0.21875 -0.71875 -0.21875 -1.546875l0 -0.15625zm1.3125 0.15625q0 0.5625 0.125 1.078125q0.125 0.5 0.375 0.890625q0.25 0.375 0.640625 0.609375q0.40625 0.21875 0.953125 0.21875q0.34375 0 0.609375 -0.078125q0.265625 -0.078125 0.484375 -0.21875q0.234375 -0.15625 0.40625 -0.359375q0.171875 -0.203125 0.296875 -0.453125l0 -3.59375q-0.25 -0.46875 -0.6875 -0.765625q-0.4375 -0.3125 -1.09375 -0.3125q-0.5625 0 -0.96875 0.234375q-0.390625 0.21875 -0.640625 0.609375q-0.25 0.390625 -0.375 0.90625q-0.125 0.515625 -0.125 1.078125l0 0.15625zm12.810852 3.78125q-0.078125 -0.15625 -0.125 -0.375q-0.046875 -0.21875 -0.0625 -0.46875q-0.203125 0.203125 -0.453125 0.390625q-0.234375 0.171875 -0.53125 0.3125q-0.296875 0.125 -0.640625 0.203125q-0.34375 0.078125 -0.71875 0.078125q-0.609375 0 -1.109375 -0.171875q-0.5 -0.1875 -0.84375 -0.484375q-0.34375 -0.3125 -0.546875 -0.71875q-0.1875 -0.421875 -0.1875 -0.90625q0 -0.640625 0.25 -1.125q0.265625 -0.484375 0.734375 -0.796875q0.46875 -0.3125 1.109375 -0.46875q0.65625 -0.15625 1.46875 -0.15625l1.453125 0l0 -0.609375q0 -0.359375 -0.140625 -0.640625q-0.125 -0.28125 -0.359375 -0.46875q-0.234375 -0.203125 -0.578125 -0.296875q-0.34375 -0.109375 -0.765625 -0.109375q-0.390625 0 -0.703125 0.09375q-0.3125 0.09375 -0.53125 0.265625q-0.203125 0.15625 -0.328125 0.390625q-0.109375 0.21875 -0.109375 0.46875l-1.328125 0q0 -0.421875 0.203125 -0.828125q0.21875 -0.40625 0.609375 -0.734375q0.40625 -0.328125 0.96875 -0.53125q0.578125 -0.203125 1.296875 -0.203125q0.65625 0 1.21875 0.171875q0.5625 0.15625 0.96875 0.484375q0.421875 0.328125 0.65625 0.8125q0.234375 0.484375 0.234375 1.140625l0 3.59375q0 0.390625 0.0625 0.828125q0.078125 0.421875 0.21875 0.75l0 0.109375l-1.390625 0zm-2.328125 -1.015625q0.375 0 0.703125 -0.09375q0.34375 -0.09375 0.625 -0.25q0.28125 -0.171875 0.46875 -0.375q0.203125 -0.21875 0.328125 -0.453125l0 -1.5625l-1.234375 0q-1.15625 0 -1.8125 0.34375q-0.640625 0.34375 -0.640625 1.078125q0 0.28125 0.09375 0.53125q0.109375 0.234375 0.296875 0.421875q0.1875 0.171875 0.484375 0.265625q0.296875 0.09375 0.6875 0.09375zm9.170166 -8.609375l0 1.875l2.953125 0l0 1.03125l-2.953125 0l0 4.203125q0 0.453125 0.109375 0.75q0.125 0.296875 0.328125 0.46875q0.203125 0.171875 0.453125 0.25q0.265625 0.0625 0.5625 0.0625q0.21875 0 0.4375 -0.015625q0.234375 -0.03125 0.453125 -0.0625q0.21875 -0.046875 0.40625 -0.078125q0.1875 -0.046875 0.3125 -0.0625l0.1875 0.9375q-0.171875 0.09375 -0.40625 0.171875q-0.234375 0.078125 -0.515625 0.125q-0.28125 0.046875 -0.59375 0.078125q-0.3125 0.03125 -0.609375 0.03125q-0.515625 0 -0.96875 -0.140625q-0.4375 -0.15625 -0.78125 -0.46875q-0.328125 -0.3125 -0.515625 -0.8125q-0.1875 -0.515625 -0.1875 -1.234375l0 -4.203125l-2.03125 0l0 -1.03125l2.03125 0l0 -1.875l1.328125 0zm10.748291 9.625q-0.078125 -0.15625 -0.125 -0.375q-0.046875 -0.21875 -0.0625 -0.46875q-0.203125 0.203125 -0.453125 0.390625q-0.234375 0.171875 -0.53125 0.3125q-0.296875 0.125 -0.640625 0.203125q-0.34375 0.078125 -0.71875 0.078125q-0.609375 0 -1.109375 -0.171875q-0.5 -0.1875 -0.84375 -0.484375q-0.34375 -0.3125 -0.546875 -0.71875q-0.1875 -0.421875 -0.1875 -0.90625q0 -0.640625 0.25 -1.125q0.265625 -0.484375 0.734375 -0.796875q0.46875 -0.3125 1.109375 -0.46875q0.65625 -0.15625 1.46875 -0.15625l1.453125 0l0 -0.609375q0 -0.359375 -0.140625 -0.640625q-0.125 -0.28125 -0.359375 -0.46875q-0.234375 -0.203125 -0.578125 -0.296875q-0.34375 -0.109375 -0.765625 -0.109375q-0.390625 0 -0.703125 0.09375q-0.3125 0.09375 -0.53125 0.265625q-0.203125 0.15625 -0.328125 0.390625q-0.109375 0.21875 -0.109375 0.46875l-1.328125 0q0 -0.421875 0.203125 -0.828125q0.21875 -0.40625 0.609375 -0.734375q0.40625 -0.328125 0.96875 -0.53125q0.578125 -0.203125 1.296875 -0.203125q0.65625 0 1.21875 0.171875q0.5625 0.15625 0.96875 0.484375q0.421875 0.328125 0.65625 0.8125q0.234375 0.484375 0.234375 1.140625l0 3.59375q0 0.390625 0.0625 0.828125q0.078125 0.421875 0.21875 0.75l0 0.109375l-1.390625 0zm-2.328125 -1.015625q0.375 0 0.703125 -0.09375q0.34375 -0.09375 0.625 -0.25q0.28125 -0.171875 0.46875 -0.375q0.203125 -0.21875 0.328125 -0.453125l0 -1.5625l-1.234375 0q-1.15625 0 -1.8125 0.34375q-0.640625 0.34375 -0.640625 1.078125q0 0.28125 0.09375 0.53125q0.109375 0.234375 0.296875 0.421875q0.1875 0.171875 0.484375 0.265625q0.296875 0.09375 0.6875 0.09375z" fill-rule="nonzero"/><path fill="#000000" fill-opacity="0.0" d="m470.16272 189.15617l112.31494 0l0 43.212585l-112.31494 0z" fill-rule="evenodd"/><path fill="#000000" d="m504.3163 209.81305l1.5 -0.140625l-0.015625 0.390625q0 0.671875 0.296875 1.21875q0.3125 0.546875 1.015625 0.859375q0.703125 0.296875 1.671875 0.296875q1.375 0 2.09375 -0.59375q0.734375 -0.609375 0.734375 -1.390625q0 -0.53125 -0.390625 -0.984375q-0.390625 -0.4375 -2.125 -1.1875q-1.359375 -0.578125 -1.84375 -0.890625q-0.78125 -0.515625 -1.15625 -1.109375q-0.359375 -0.59375 -0.359375 -1.359375q0 -0.890625 0.484375 -1.59375q0.484375 -0.71875 1.421875 -1.09375q0.9375 -0.375 2.109375 -0.375q1.390625 0 2.3437195 0.46875q0.96875 0.46875 1.40625 1.25q0.4375 0.78125 0.4375 1.5q0 0.0625 -0.015625 0.234375l-1.46875 0.109375q0 -0.484375 -0.09375 -0.75q-0.15625 -0.484375 -0.48434448 -0.8125q-0.328125 -0.328125 -0.90625 -0.515625q-0.5625 -0.203125 -1.28125 -0.203125q-1.25 0 -1.9375 0.5625q-0.53125 0.421875 -0.53125 1.140625q0 0.421875 0.21875 0.75q0.21875 0.328125 0.78125 0.65625q0.40625 0.21875 1.9375 0.890625q1.234375 0.546875 1.703125 0.859375q0.6249695 0.421875 0.9530945 1.015625q0.34375 0.578125 0.34375 1.328125q0 0.9375 -0.578125 1.71875q-0.5625 0.78125 -1.5624695 1.21875q-1.0 0.4375 -2.28125 0.4375q-1.953125 0 -3.1875 -0.84375q-1.21875 -0.859375 -1.234375 -3.0625zm13.3905945 2.546875l-0.234375 1.171875q-0.515625 0.125 -0.984375 0.125q-0.84375 0 -1.34375 -0.421875q-0.375 -0.3125 -0.375 -0.84375q0 -0.28125 0.203125 -1.265625l1.0 -4.8125l-1.109375 0l0.21875 -1.09375l1.125 0l0.421875 -2.046875l1.625 -0.96875l-0.640625 3.015625l1.390625 0l-0.234375 1.09375l-1.375 0l-0.96875 4.578125q-0.171875 0.875 -0.171875 1.046875q0 0.25 0.140625 0.390625q0.140625 0.125 0.46875 0.125q0.46875 0 0.84375 -0.09375zm7.2265625 -1.671875l1.375 0.140625q-0.296875 1.03125 -1.359375 1.953125q-1.0625 0.921875 -2.546875 0.921875q-0.921875 0 -1.6875 -0.421875q-0.765625 -0.4375 -1.171875 -1.25q-0.40625 -0.8125 -0.40625 -1.84375q0 -1.359375 0.625 -2.640625q0.640625 -1.28125 1.640625 -1.890625q1.0 -0.625 2.15625 -0.625q1.484375 0 2.375 0.921875q0.890625 0.921875 0.890625 2.515625q0 0.609375 -0.109375 1.25l-6.109375 0q-0.03125 0.234375 -0.03125 0.4375q0 1.15625 0.53125 1.78125q0.53125 0.609375 1.3125 0.609375q0.71875 0 1.421875 -0.46875q0.703125 -0.484375 1.09375 -1.390625zm-4.109375 -2.046875l4.65625 0q0.015625 -0.21875 0.015625 -0.3125q0 -1.0625 -0.53125 -1.625q-0.53125 -0.578125 -1.375 -0.578125q-0.90625 0 -1.65625 0.625q-0.734375 0.625 -1.109375 1.890625zm6.2109375 8.0625l2.40625 -11.484375l1.3125 0l-0.25 1.15625q0.734375 -0.765625 1.296875 -1.046875q0.578125 -0.296875 1.21875 -0.296875q1.1875 0 1.96875 0.859375q0.78125 0.859375 0.78125 2.46875q0 1.296875 -0.4375 2.375q-0.421875 1.0625 -1.046875 1.71875q-0.625 0.640625 -1.265625 0.953125q-0.640625 0.296875 -1.3125 0.296875q-1.484375 0 -2.3125 -1.515625l-0.9375 4.515625l-1.421875 0zm2.8125 -6.578125q0 0.921875 0.125 1.28125q0.203125 0.515625 0.640625 0.828125q0.453125 0.3125 1.03125 0.3125q1.21875 0 1.96875 -1.375q0.75 -1.375 0.75 -2.796875q0 -1.0625 -0.5 -1.625q-0.5 -0.578125 -1.25 -0.578125q-0.546875 0 -1.015625 0.28125q-0.453125 0.28125 -0.84375 0.859375q-0.390625 0.5625 -0.65625 1.390625q-0.25 0.8125 -0.25 1.421875zm11.578125 0.390625l1.375 -0.171875q0.15625 1.203125 0.6875 1.71875q0.546875 0.515625 1.40625 0.515625q1.046875 0 1.8125 -0.75q0.765625 -0.75 0.765625 -1.71875q0 -0.84375 -0.578125 -1.390625q-0.5625 -0.546875 -1.53125 -0.546875q-0.109375 0 -0.453125 0.03125l0.25 -1.1875q0.203125 0.03125 0.390625 0.03125q1.203125 0 1.859375 -0.578125q0.65625 -0.59375 0.65625 -1.453125q0 -0.796875 -0.546875 -1.328125q-0.53125 -0.546875 -1.296875 -0.546875q-0.765625 0 -1.375 0.5625q-0.59375 0.546875 -0.765625 1.546875l-1.390625 -0.28125q0.34375 -1.40625 1.3125 -2.171875q0.984375 -0.78125 2.3125 -0.78125q1.40625 0 2.28125 0.859375q0.875 0.84375 0.875 2.078125q0 0.90625 -0.484375 1.59375q-0.46875 0.671875 -1.40625 1.109375q0.671875 0.40625 1.0 0.96875q0.328125 0.5625 0.328125 1.28125q0 1.546875 -1.15625 2.6875q-1.140625 1.125 -2.75 1.125q-1.546875 0 -2.515625 -0.875q-0.953125 -0.875 -1.0625 -2.328125z" fill-rule="nonzero"/><path fill="#000000" fill-opacity="0.0" d="m654.8478 189.15749l137.25983 0l0 43.212585l-137.25983 0z" fill-rule="evenodd"/><path fill="#85200c" d="m674.47766 216.89249q-1.21875 -2.6875 -1.21875 -5.53125q0 -1.890625 0.484375 -3.515625q0.5 -1.640625 1.515625 -3.234375q0.671875 -1.0625 2.15625 -2.75l1.09375 0q-0.90625 0.984375 -1.9375 2.765625q-1.015625 1.765625 -1.484375 3.484375q-0.453125 1.703125 -0.453125 3.421875q0 2.59375 0.90625 5.359375l-1.0625 0zm8.875 -4.40625q-0.734375 0.625 -1.421875 0.921875q-0.671875 0.296875 -1.4375 0.296875q-1.15625 0 -1.859375 -0.671875q-0.703125 -0.6875 -0.703125 -1.734375q0 -0.703125 0.3125 -1.234375q0.328125 -0.53125 0.84375 -0.859375q0.53125 -0.328125 1.28125 -0.46875q0.484375 -0.09375 1.8125 -0.140625q1.328125 -0.0625 1.90625 -0.28125q0.171875 -0.578125 0.171875 -0.96875q0 -0.484375 -0.359375 -0.765625q-0.5 -0.390625 -1.4375 -0.390625q-0.890625 0 -1.46875 0.390625q-0.5625 0.390625 -0.8125 1.125l-1.4375 -0.125q0.4375 -1.234375 1.390625 -1.890625q0.953125 -0.65625 2.390625 -0.65625q1.546875 0 2.4375 0.734375q0.6875 0.546875 0.6875 1.421875q0 0.65625 -0.1875 1.53125l-0.46875 2.0625q-0.21875 0.984375 -0.21875 1.609375q0 0.390625 0.171875 1.125l-1.421875 0q-0.125 -0.40625 -0.171875 -1.03125zm0.53125 -3.171875q-0.296875 0.109375 -0.640625 0.171875q-0.34375 0.0625 -1.140625 0.140625q-1.234375 0.109375 -1.75 0.28125q-0.5 0.15625 -0.765625 0.53125q-0.25 0.359375 -0.25 0.8125q0 0.59375 0.40625 0.984375q0.421875 0.375 1.171875 0.375q0.703125 0 1.34375 -0.375q0.65625 -0.375 1.03125 -1.03125q0.375 -0.671875 0.59375 -1.890625zm2.9140625 1.359375l1.40625 -0.078125q0 0.609375 0.1875 1.046875q0.1875 0.421875 0.6875 0.703125q0.515625 0.265625 1.1875 0.265625q0.9375 0 1.40625 -0.375q0.46875 -0.375 0.46875 -0.890625q0 -0.359375 -0.28125 -0.6875q-0.296875 -0.328125 -1.421875 -0.8125q-1.109375 -0.484375 -1.421875 -0.671875q-0.53125 -0.328125 -0.796875 -0.75q-0.265625 -0.4375 -0.265625 -1.0q0 -0.984375 0.78125 -1.6875q0.78125 -0.703125 2.1875 -0.703125q1.5625 0 2.375 0.71875q0.828125 0.71875 0.859375 1.90625l-1.390625 0.09375q-0.03125 -0.75 -0.53125 -1.1875q-0.5 -0.4375 -1.40625 -0.4375q-0.734375 0 -1.140625 0.34375q-0.40625 0.328125 -0.40625 0.71875q0 0.390625 0.34375 0.6875q0.234375 0.203125 1.21875 0.625q1.625 0.703125 2.046875 1.109375q0.671875 0.640625 0.671875 1.578125q0 0.609375 -0.390625 1.203125q-0.375 0.59375 -1.15625 0.953125q-0.765625 0.359375 -1.828125 0.359375q-1.4375 0 -2.4375 -0.71875q-1.015625 -0.703125 -0.953125 -2.3125zm7.328125 6.046875l0.09375 -1.328125q0.4375 0.125 0.84375 0.125q0.4375 0 0.703125 -0.1875q0.34375 -0.265625 0.75 -0.96875l0.453125 -0.8125l-1.390625 -8.328125l1.390625 0l0.625 4.1875q0.1875 1.25 0.328125 2.484375l3.703125 -6.671875l1.484375 0l-5.296875 9.40625q-0.765625 1.375 -1.359375 1.8125q-0.59375 0.453125 -1.359375 0.453125q-0.5 0 -0.96875 -0.171875zm8.53125 -3.203125l1.734375 -8.296875l1.28125 0l-0.296875 1.4375q0.828125 -0.84375 1.546875 -1.234375q0.734375 -0.390625 1.5 -0.390625q1.0 0 1.578125 0.546875q0.578125 0.546875 0.578125 1.453125q0 0.46875 -0.203125 1.453125l-1.0625 5.03125l-1.40625 0l1.09375 -5.265625q0.171875 -0.765625 0.171875 -1.125q0 -0.421875 -0.296875 -0.671875q-0.28125 -0.265625 -0.8125 -0.265625q-1.09375 0 -1.9375 0.78125q-0.84375 0.78125 -1.25 2.6875l-0.796875 3.859375l-1.421875 0zm14.6328125 -3.03125l1.40625 0.15625q-0.53125 1.546875 -1.515625 2.3125q-0.96875 0.75 -2.21875 0.75q-1.359375 0 -2.203125 -0.875q-0.828125 -0.875 -0.828125 -2.453125q0 -1.359375 0.53125 -2.671875q0.546875 -1.3125 1.546875 -1.984375q1.0 -0.6875 2.296875 -0.6875q1.328125 0 2.109375 0.75q0.78125 0.75 0.78125 2.0l-1.390625 0.09375q0 -0.796875 -0.453125 -1.234375q-0.453125 -0.453125 -1.1875 -0.453125q-0.84375 0 -1.46875 0.546875q-0.625 0.53125 -0.984375 1.640625q-0.359375 1.09375 -0.359375 2.109375q0 1.0625 0.46875 1.59375q0.46875 0.53125 1.15625 0.53125q0.6875 0 1.3125 -0.515625q0.640625 -0.53125 1.0 -1.609375zm4.90625 -8.625q1.234375 2.6875 1.234375 5.515625q0 1.90625 -0.5 3.53125q-0.484375 1.625 -1.5 3.234375q-0.6875 1.0625 -2.15625 2.75l-1.109375 0q0.921875 -0.984375 1.9375 -2.765625q1.03125 -1.78125 1.484375 -3.484375q0.453125 -1.703125 0.453125 -3.4375q0 -2.578125 -0.890625 -5.34375l1.046875 0z" fill-rule="nonzero"/><path fill="#000000" d="m729.923 209.81436l1.5 -0.140625l-0.015625 0.390625q0 0.671875 0.296875 1.21875q0.3125 0.546875 1.015625 0.859375q0.703125 0.296875 1.671875 0.296875q1.375 0 2.09375 -0.59375q0.734375 -0.609375 0.734375 -1.390625q0 -0.53125 -0.390625 -0.984375q-0.390625 -0.4375 -2.125 -1.1875q-1.359375 -0.578125 -1.84375 -0.890625q-0.78125 -0.515625 -1.15625 -1.109375q-0.359375 -0.59375 -0.359375 -1.359375q0 -0.890625 0.484375 -1.59375q0.484375 -0.71875 1.421875 -1.09375q0.9375 -0.375 2.109375 -0.375q1.390625 0 2.34375 0.46875q0.96875 0.46875 1.40625 1.25q0.4375 0.78125 0.4375 1.5q0 0.0625 -0.015625 0.234375l-1.46875 0.109375q0 -0.484375 -0.09375 -0.75q-0.15625 -0.484375 -0.484375 -0.8125q-0.328125 -0.328125 -0.90625 -0.515625q-0.5625 -0.203125 -1.28125 -0.203125q-1.25 0 -1.9375 0.5625q-0.53125 0.421875 -0.53125 1.140625q0 0.421875 0.21875 0.75q0.21875 0.328125 0.78125 0.65625q0.40625 0.21875 1.9375 0.890625q1.234375 0.546875 1.703125 0.859375q0.625 0.421875 0.953125 1.015625q0.34375 0.578125 0.34375 1.328125q0 0.9375 -0.578125 1.71875q-0.5625 0.78125 -1.5625 1.21875q-1.0 0.4375 -2.28125 0.4375q-1.953125 0 -3.1875 -0.84375q-1.21875 -0.859375 -1.234375 -3.0625zm13.390625 2.546875l-0.234375 1.171875q-0.515625 0.125 -0.984375 0.125q-0.84375 0 -1.34375 -0.421875q-0.375 -0.3125 -0.375 -0.84375q0 -0.28125 0.203125 -1.265625l1.0 -4.8125l-1.109375 0l0.21875 -1.09375l1.125 0l0.421875 -2.046875l1.625 -0.96875l-0.640625 3.015625l1.390625 0l-0.234375 1.09375l-1.375 0l-0.96875 4.578125q-0.171875 0.875 -0.171875 1.046875q0 0.25 0.140625 0.390625q0.140625 0.125 0.46875 0.125q0.46875 0 0.84375 -0.09375zm7.2265625 -1.671875l1.375 0.140625q-0.296875 1.03125 -1.359375 1.953125q-1.0625 0.921875 -2.546875 0.921875q-0.921875 0 -1.6875 -0.421875q-0.765625 -0.4375 -1.171875 -1.25q-0.40625 -0.8125 -0.40625 -1.84375q0 -1.359375 0.625 -2.640625q0.640625 -1.28125 1.640625 -1.890625q1.0 -0.625 2.15625 -0.625q1.484375 0 2.375 0.921875q0.890625 0.921875 0.890625 2.515625q0 0.609375 -0.109375 1.25l-6.109375 0q-0.03125 0.234375 -0.03125 0.4375q0 1.15625 0.53125 1.78125q0.53125 0.609375 1.3125 0.609375q0.71875 0 1.421875 -0.46875q0.703125 -0.484375 1.09375 -1.390625zm-4.109375 -2.046875l4.65625 0q0.015625 -0.21875 0.015625 -0.3125q0 -1.0625 -0.53125 -1.625q-0.53125 -0.578125 -1.375 -0.578125q-0.90625 0 -1.65625 0.625q-0.734375 0.625 -1.109375 1.890625zm6.2109375 8.0625l2.40625 -11.484375l1.3125 0l-0.25 1.15625q0.734375 -0.765625 1.296875 -1.046875q0.578125 -0.296875 1.21875 -0.296875q1.1875 0 1.96875 0.859375q0.78125 0.859375 0.78125 2.46875q0 1.296875 -0.4375 2.375q-0.421875 1.0625 -1.046875 1.71875q-0.625 0.640625 -1.265625 0.953125q-0.640625 0.296875 -1.3125 0.296875q-1.484375 0 -2.3125 -1.515625l-0.9375 4.515625l-1.421875 0zm2.8125 -6.578125q0 0.921875 0.125 1.28125q0.203125 0.515625 0.640625 0.828125q0.453125 0.3125 1.03125 0.3125q1.21875 0 1.96875 -1.375q0.75 -1.375 0.75 -2.796875q0 -1.0625 -0.5 -1.625q-0.5 -0.578125 -1.25 -0.578125q-0.546875 0 -1.015625 0.28125q-0.453125 0.28125 -0.84375 0.859375q-0.390625 0.5625 -0.65625 1.390625q-0.25 0.8125 -0.25 1.421875zm15.484375 3.390625l0.625 -2.921875l-4.671875 0l0.296875 -1.40625l6.40625 -7.125l1.15625 0l-1.515625 7.28125l1.609375 0l-0.265625 1.25l-1.609375 0l-0.609375 2.921875l-1.421875 0zm0.875 -4.171875l1.0 -4.78125l-4.265625 4.78125l3.265625 0z" fill-rule="nonzero"/><path fill="#000000" fill-opacity="0.0" d="m76.64304 189.15617l112.314964 0l0 43.212585l-112.314964 0z" fill-rule="evenodd"/><path fill="#000000" d="m110.79662 209.81305l1.5 -0.140625l-0.015625 0.390625q0 0.671875 0.296875 1.21875q0.3125 0.546875 1.015625 0.859375q0.703125 0.296875 1.671875 0.296875q1.375 0 2.09375 -0.59375q0.734375 -0.609375 0.734375 -1.390625q0 -0.53125 -0.390625 -0.984375q-0.390625 -0.4375 -2.125 -1.1875q-1.359375 -0.578125 -1.84375 -0.890625q-0.78125 -0.515625 -1.15625 -1.109375q-0.359375 -0.59375 -0.359375 -1.359375q0 -0.890625 0.484375 -1.59375q0.484375 -0.71875 1.421875 -1.09375q0.9375 -0.375 2.109375 -0.375q1.390625 0 2.34375 0.46875q0.96875 0.46875 1.40625 1.25q0.4375 0.78125 0.4375 1.5q0 0.0625 -0.015625 0.234375l-1.46875 0.109375q0 -0.484375 -0.09375 -0.75q-0.15625 -0.484375 -0.484375 -0.8125q-0.328125 -0.328125 -0.90625 -0.515625q-0.5625 -0.203125 -1.28125 -0.203125q-1.25 0 -1.9375 0.5625q-0.53125 0.421875 -0.53125 1.140625q0 0.421875 0.21875 0.75q0.21875 0.328125 0.78125 0.65625q0.40625 0.21875 1.9375 0.890625q1.234375 0.546875 1.703125 0.859375q0.625 0.421875 0.953125 1.015625q0.34375 0.578125 0.34375 1.328125q0 0.9375 -0.578125 1.71875q-0.5625 0.78125 -1.5625 1.21875q-1.0 0.4375 -2.28125 0.4375q-1.953125 0 -3.1875 -0.84375q-1.21875 -0.859375 -1.234375 -3.0625zm13.390625 2.546875l-0.234375 1.171875q-0.515625 0.125 -0.984375 0.125q-0.84375 0 -1.34375 -0.421875q-0.375 -0.3125 -0.375 -0.84375q0 -0.28125 0.203125 -1.265625l1.0 -4.8125l-1.109375 0l0.21875 -1.09375l1.125 0l0.421875 -2.046875l1.625 -0.96875l-0.640625 3.015625l1.390625 0l-0.234375 1.09375l-1.375 0l-0.96875 4.578125q-0.171875 0.875 -0.171875 1.046875q0 0.25 0.140625 0.390625q0.140625 0.125 0.46875 0.125q0.46875 0 0.84375 -0.09375zm7.226555 -1.671875l1.375 0.140625q-0.296875 1.03125 -1.359375 1.953125q-1.0625 0.921875 -2.546875 0.921875q-0.9218674 0 -1.6874924 -0.421875q-0.765625 -0.4375 -1.171875 -1.25q-0.40625 -0.8125 -0.40625 -1.84375q0 -1.359375 0.625 -2.640625q0.640625 -1.28125 1.640625 -1.890625q0.9999924 -0.625 2.1562424 -0.625q1.484375 0 2.375 0.921875q0.890625 0.921875 0.890625 2.515625q0 0.609375 -0.109375 1.25l-6.1093674 0q-0.03125 0.234375 -0.03125 0.4375q0 1.15625 0.53125 1.78125q0.5312424 0.609375 1.3124924 0.609375q0.71875 0 1.421875 -0.46875q0.703125 -0.484375 1.09375 -1.390625zm-4.1093674 -2.046875l4.6562424 0q0.015625 -0.21875 0.015625 -0.3125q0 -1.0625 -0.53125 -1.625q-0.53125 -0.578125 -1.375 -0.578125q-0.90625 0 -1.65625 0.625q-0.7343674 0.625 -1.1093674 1.890625zm6.21093 8.0625l2.40625 -11.484375l1.3125 0l-0.25 1.15625q0.734375 -0.765625 1.296875 -1.046875q0.578125 -0.296875 1.21875 -0.296875q1.1875153 0 1.9687653 0.859375q0.78125 0.859375 0.78125 2.46875q0 1.296875 -0.4375 2.375q-0.421875 1.0625 -1.046875 1.71875q-0.62501526 0.640625 -1.2656403 0.953125q-0.640625 0.296875 -1.3125 0.296875q-1.484375 0 -2.3125 -1.515625l-0.9375 4.515625l-1.421875 0zm2.8125 -6.578125q0 0.921875 0.125 1.28125q0.203125 0.515625 0.640625 0.828125q0.453125 0.3125 1.03125 0.3125q1.21875 0 1.96875 -1.375q0.75001526 -1.375 0.75001526 -2.796875q0 -1.0625 -0.50001526 -1.625q-0.5 -0.578125 -1.25 -0.578125q-0.546875 0 -1.015625 0.28125q-0.453125 0.28125 -0.84375 0.859375q-0.390625 0.5625 -0.65625 1.390625q-0.25 0.8125 -0.25 1.421875zm14.562515 3.390625l1.8125 -8.65625q-1.171875 0.921875 -3.296875 1.484375l0.265625 -1.28125q1.046875 -0.421875 2.078125 -1.09375q1.03125 -0.6875 1.546875 -1.203125q0.3125 -0.3125 0.59375 -0.75l0.8125 0l-2.390625 11.5l-1.421875 0z" fill-rule="nonzero"/><path fill="#000000" fill-opacity="0.0" d="m264.44095 190.17586l112.31497 0l0 43.2126l-112.31497 0z" fill-rule="evenodd"/><path fill="#000000" d="m298.5945 210.83273l1.5 -0.140625l-0.015625 0.390625q0 0.671875 0.296875 1.21875q0.3125 0.546875 1.015625 0.859375q0.703125 0.296875 1.671875 0.296875q1.375 0 2.09375 -0.59375q0.734375 -0.609375 0.734375 -1.390625q0 -0.53125 -0.390625 -0.984375q-0.390625 -0.4375 -2.125 -1.1875q-1.359375 -0.578125 -1.84375 -0.890625q-0.78125 -0.515625 -1.15625 -1.109375q-0.359375 -0.59375 -0.359375 -1.359375q0 -0.890625 0.484375 -1.59375q0.484375 -0.71875 1.421875 -1.09375q0.9375 -0.375 2.109375 -0.375q1.390625 0 2.34375 0.46875q0.96875 0.46875 1.40625 1.25q0.4375 0.78125 0.4375 1.5q0 0.0625 -0.015625 0.234375l-1.46875 0.109375q0 -0.484375 -0.09375 -0.75q-0.15625 -0.484375 -0.484375 -0.8125q-0.328125 -0.328125 -0.90625 -0.515625q-0.5625 -0.203125 -1.28125 -0.203125q-1.25 0 -1.9375 0.5625q-0.53125 0.421875 -0.53125 1.140625q0 0.421875 0.21875 0.75q0.21875 0.328125 0.78125 0.65625q0.40625 0.21875 1.9375 0.890625q1.234375 0.546875 1.703125 0.859375q0.625 0.421875 0.953125 1.015625q0.34375 0.578125 0.34375 1.328125q0 0.9375 -0.578125 1.71875q-0.5625 0.78125 -1.5625 1.21875q-1.0 0.4375 -2.28125 0.4375q-1.953125 0 -3.1875 -0.84375q-1.21875 -0.859375 -1.234375 -3.0625zm13.390625 2.546875l-0.234375 1.171875q-0.515625 0.125 -0.984375 0.125q-0.84375 0 -1.34375 -0.421875q-0.375 -0.3125 -0.375 -0.84375q0 -0.28125 0.203125 -1.265625l1.0 -4.8125l-1.109375 0l0.21875 -1.09375l1.125 0l0.421875 -2.046875l1.625 -0.96875l-0.640625 3.015625l1.390625 0l-0.234375 1.09375l-1.375 0l-0.96875 4.578125q-0.171875 0.875 -0.171875 1.046875q0 0.25 0.140625 0.390625q0.140625 0.125 0.46875 0.125q0.46875 0 0.84375 -0.09375zm7.2265625 -1.671875l1.375 0.140625q-0.296875 1.03125 -1.359375 1.953125q-1.0625 0.921875 -2.546875 0.921875q-0.921875 0 -1.6875 -0.421875q-0.765625 -0.4375 -1.171875 -1.25q-0.40625 -0.8125 -0.40625 -1.84375q0 -1.359375 0.625 -2.640625q0.640625 -1.28125 1.640625 -1.890625q1.0 -0.625 2.15625 -0.625q1.484375 0 2.375 0.921875q0.890625 0.921875 0.890625 2.515625q0 0.609375 -0.109375 1.25l-6.109375 0q-0.03125 0.234375 -0.03125 0.4375q0 1.15625 0.53125 1.78125q0.53125 0.609375 1.3125 0.609375q0.71875 0 1.421875 -0.46875q0.703125 -0.484375 1.09375 -1.390625zm-4.109375 -2.046875l4.65625 0q0.015625 -0.21875 0.015625 -0.3125q0 -1.0625 -0.53125 -1.625q-0.53125 -0.578125 -1.375 -0.578125q-0.90625 0 -1.65625 0.625q-0.734375 0.625 -1.109375 1.890625zm6.2109375 8.0625l2.40625 -11.484375l1.3125 0l-0.25 1.15625q0.734375 -0.765625 1.296875 -1.046875q0.578125 -0.296875 1.21875 -0.296875q1.1875 0 1.96875 0.859375q0.78125 0.859375 0.78125 2.46875q0 1.296875 -0.4375 2.375q-0.421875 1.0625 -1.046875 1.71875q-0.625 0.640625 -1.265625 0.953125q-0.640625 0.296875 -1.3125 0.296875q-1.484375 0 -2.3125 -1.515625l-0.9375 4.515625l-1.421875 0zm2.8125 -6.578125q0 0.921875 0.125 1.28125q0.203125 0.515625 0.640625 0.828125q0.453125 0.3125 1.03125 0.3125q1.21875 0 1.96875 -1.375q0.75 -1.375 0.75 -2.796875q0 -1.0625 -0.5 -1.625q-0.5 -0.578125 -1.25 -0.578125q-0.546875 0 -1.015625 0.28125q-0.453125 0.28125 -0.84375 0.859375q-0.390625 0.5625 -0.65625 1.390625q-0.25 0.8125 -0.25 1.421875zm11.640625 3.390625q0.21875 -1.03125 0.609375 -1.71875q0.390625 -0.6875 1.03125 -1.3125q0.640625 -0.625 2.46875 -2.078125q1.109375 -0.890625 1.515625 -1.3125q0.578125 -0.609375 0.84375 -1.1875q0.1875 -0.40625 0.1875 -0.875q0 -0.78125 -0.5625 -1.328125q-0.5625 -0.5625 -1.375 -0.5625q-0.796875 0 -1.40625 0.5625q-0.59375 0.5625 -0.859375 1.796875l-1.375 -0.203125q0.203125 -1.53125 1.171875 -2.40625q0.984375 -0.875 2.453125 -0.875q0.96875 0 1.765625 0.40625q0.796875 0.40625 1.1875 1.140625q0.40625 0.734375 0.40625 1.515625q0 1.140625 -0.8125 2.1875q-0.5 0.65625 -2.9375 2.59375q-1.046875 0.828125 -1.5625 1.359375q-0.515625 0.53125 -0.765625 1.0l5.125 0l-0.28125 1.296875l-6.828125 0z" fill-rule="nonzero"/></g></svg>